M48
METRIC,LZ,000.000
;FILE_FORMAT=3:3
;TYPE=PLATED
;Layer: PTH_Through
;EasyEDA v6.5.22, 2023-02-14 12:38:32
;3ec02a8cd32b49f9a07c26a40bf890e6,7be1179030e74d40a97a3c751b95adb4,10
;Gerber Generator version 0.2
;Holesize 1 = 0.351 mm
T01C0.351
;Holesize 2 = 1.000 mm
T02C1.000
;Holesize 3 = 1.067 mm
T03C1.067
%
G05
G90
T01
X-039711Y-020864G85X-039711Y-019014
X-031391Y-020864G85X-031391Y-019014
X-041191Y-020864G85X-041191Y-019014
X-026884Y-021118G85X-026884Y-019268
X-018564Y-021118G85X-018564Y-019268
X-028364Y-021118G85X-028364Y-019268
X-014311Y052923G85X-014311Y054773
X-005991Y052923G85X-005991Y054773
X-015791Y052923G85X-015791Y054773
X-014565Y-039025G85X-014565Y-037175
X-006245Y-039025G85X-006245Y-037175
X-016045Y-039025G85X-016045Y-037175
T02
X-012025Y031369
X-009525Y031369
X-007025Y031369
X-012025Y013843
X-009525Y013843
X-007025Y013843
X-012025Y-003937
X-009525Y-003937
X-007025Y-003937
X-024638Y019050G85X-024638Y019050
X-024638Y021590G85X-024638Y021590
X-024638Y024130G85X-024638Y024130
X-024638Y026670G85X-024638Y026670
X-024638Y029210G85X-024638Y029210
X-024638Y031750G85X-024638Y031750
X-024638Y034290G85X-024638Y034290
X-024638Y036830G85X-024638Y036830
X-024638Y039370G85X-024638Y039370
X-024638Y041910G85X-024638Y041910
X-024638Y044450G85X-024638Y044450
X-024638Y046990G85X-024638Y046990
X-039878Y019050G85X-039878Y019050
X-039878Y021590G85X-039878Y021590
X-039878Y024130G85X-039878Y024130
X-039878Y026670G85X-039878Y026670
X-039878Y029210G85X-039878Y029210
X-039878Y031750G85X-039878Y031750
X-039878Y036830G85X-039878Y036830
X-039878Y039370G85X-039878Y039370
X-039878Y044450G85X-039878Y044450
X-039878Y046990G85X-039878Y046990
X-039878Y041910G85X-039878Y041910
X-039878Y034290G85X-039878Y034290
X-024638Y049530G85X-024638Y049530
X-024638Y052070G85X-024638Y052070
X-024638Y054610G85X-024638Y054610
X-039878Y049530G85X-039878Y049530
X-039878Y052070G85X-039878Y052070
X-039878Y054610G85X-039878Y054610
T03
X-037211Y006096
X-039751Y006096
X-037211Y001016
X-039751Y001016
X-037211Y-001524
X-039751Y-001524
X-037211Y-004064
X-039751Y-004064
X-037211Y-006604
X-039751Y-006604
X-037211Y008636
X-039751Y008636
X-037211Y003556
X-039751Y003556
X-037211Y-009144
X-039751Y-009144
M30
