G04 Layer: TopSolderMaskLayer*
G04 EasyEDA v6.5.22, 2023-02-14 12:38:32*
G04 3ec02a8cd32b49f9a07c26a40bf890e6,7be1179030e74d40a97a3c751b95adb4,10*
G04 Gerber Generator version 0.2*
G04 Scale: 100 percent, Rotated: No, Reflected: No *
G04 Dimensions in millimeters *
G04 leading zeros omitted , absolute positions ,4 integer and 5 decimal *
%FSLAX45Y45*%
%MOMM*%

%AMMACRO1*1,1,$1,$2,$3*1,1,$1,$4,$5*1,1,$1,0-$2,0-$3*1,1,$1,0-$4,0-$5*20,1,$1,$2,$3,$4,$5,0*20,1,$1,$4,$5,0-$2,0-$3,0*20,1,$1,0-$2,0-$3,0-$4,0-$5,0*20,1,$1,0-$4,0-$5,$2,$3,0*4,1,4,$2,$3,$4,$5,0-$2,0-$3,0-$4,0-$5,$2,$3,0*%
%ADD10C,1.7653*%
%ADD11MACRO1,0.1016X-0.8319X-0.8319X0.8319X-0.8319*%
%ADD12MACRO1,0.1016X0.4X-0.45X-0.4X-0.45*%
%ADD13MACRO1,0.1016X-0.4X0.45X0.4X0.45*%
%ADD14MACRO1,0.1016X0.45X0.4X0.45X-0.4*%
%ADD15C,1.6256*%
%ADD16O,1.703197X3.4031936*%
%ADD17O,1.0031984X3.0031944000000004*%
%ADD18MACRO1,0.1016X0.754X0.754X0.754X-0.754*%
%ADD19C,1.6096*%
%ADD20MACRO1,0.1016X-0.4032X-0.432X-0.4032X0.432*%
%ADD21MACRO1,0.1016X0.4032X-0.432X0.4032X0.432*%
%ADD22MACRO1,0.1016X0.4032X0.432X0.4032X-0.432*%
%ADD23MACRO1,0.1016X-0.4032X0.432X-0.4032X-0.432*%
%ADD24MACRO1,0.1016X0.432X-0.4032X-0.432X-0.4032*%
%ADD25MACRO1,0.1016X0.432X0.4032X-0.432X0.4032*%
%ADD26MACRO1,0.1016X-0.5663X-0.6885X-0.5663X0.6885*%
%ADD27MACRO1,0.1016X0.5663X-0.6885X0.5663X0.6885*%
%ADD28O,0.6700012X2.051812*%

%LPD*%
D10*
G01*
X-3721100Y609600D03*
G01*
X-3975100Y609600D03*
G01*
X-3721100Y101600D03*
G01*
X-3975100Y101600D03*
G01*
X-3721100Y-152400D03*
G01*
X-3975100Y-152400D03*
G01*
X-3721100Y-406400D03*
G01*
X-3975100Y-406400D03*
G01*
X-3721100Y-660400D03*
G01*
X-3975100Y-660400D03*
G01*
X-3721100Y863600D03*
G01*
X-3975100Y863600D03*
G01*
X-3721100Y355600D03*
G01*
X-3975100Y355600D03*
G01*
X-3721100Y-914400D03*
D11*
G01*
X-3975100Y-914400D03*
D12*
G01*
X-2000399Y5676900D03*
G01*
X-1860400Y5676900D03*
G01*
X-2051199Y419100D03*
G01*
X-1911200Y419100D03*
G01*
X-2000399Y1778000D03*
G01*
X-1860400Y1778000D03*
D13*
G01*
X-1847700Y3517900D03*
G01*
X-1987699Y3517900D03*
G01*
X-3244700Y4203700D03*
G01*
X-3384699Y4203700D03*
D14*
G01*
X-2921000Y4019400D03*
G01*
X-2921000Y4159399D03*
D13*
G01*
X-603100Y-2705100D03*
G01*
X-743099Y-2705100D03*
D14*
G01*
X-3581400Y-2787799D03*
G01*
X-3581400Y-2647800D03*
G01*
X-2324100Y-2775099D03*
G01*
X-2324100Y-2635100D03*
D15*
G01*
X-1202486Y3136900D03*
G01*
X-952500Y3136900D03*
G01*
X-702487Y3136900D03*
D16*
G01*
X-522300Y3836746D03*
G01*
X-1382496Y3836898D03*
D15*
G01*
X-1202486Y1384300D03*
G01*
X-952500Y1384300D03*
G01*
X-702487Y1384300D03*
D16*
G01*
X-522300Y2084146D03*
G01*
X-1382496Y2084298D03*
D15*
G01*
X-1202486Y-393700D03*
G01*
X-952500Y-393700D03*
G01*
X-702487Y-393700D03*
D16*
G01*
X-522300Y306146D03*
G01*
X-1382496Y306298D03*
D17*
G01*
X-3971112Y-1993900D03*
G01*
X-3139109Y-1993900D03*
G01*
X-4119092Y-1993900D03*
G01*
X-2688412Y-2019300D03*
G01*
X-1856409Y-2019300D03*
G01*
X-2836392Y-2019300D03*
G01*
X-1431112Y5384800D03*
G01*
X-599109Y5384800D03*
G01*
X-1579092Y5384800D03*
G01*
X-1456512Y-3810000D03*
G01*
X-624509Y-3810000D03*
G01*
X-1604492Y-3810000D03*
D18*
G01*
X-2463800Y1905000D03*
D19*
G01*
X-2463800Y2159000D03*
G01*
X-2463800Y2413000D03*
G01*
X-2463800Y2667000D03*
G01*
X-2463800Y2921000D03*
G01*
X-2463800Y3175000D03*
G01*
X-2463800Y3429000D03*
G01*
X-2463800Y3683000D03*
G01*
X-2463800Y3937000D03*
G01*
X-2463800Y4191000D03*
G01*
X-2463800Y4445000D03*
G01*
X-2463800Y4699000D03*
G01*
X-3987800Y1905000D03*
G01*
X-3987800Y2159000D03*
G01*
X-3987800Y2413000D03*
G01*
X-3987800Y2667000D03*
G01*
X-3987800Y2921000D03*
G01*
X-3987800Y3175000D03*
G01*
X-3987800Y3683000D03*
G01*
X-3987800Y3937000D03*
G01*
X-3987800Y4445000D03*
G01*
X-3987800Y4699000D03*
G01*
X-3987800Y4191000D03*
G01*
X-3987800Y3429000D03*
G01*
X-2463800Y4953000D03*
G01*
X-2463800Y5207000D03*
G01*
X-2463800Y5461000D03*
G01*
X-3987800Y4953000D03*
G01*
X-3987800Y5207000D03*
G01*
X-3987800Y5461000D03*
D20*
G01*
X-1842375Y4025900D03*
D21*
G01*
X-1993024Y4025900D03*
D22*
G01*
X-2005724Y2197100D03*
D23*
G01*
X-1855075Y2197100D03*
D22*
G01*
X-2056524Y88900D03*
D23*
G01*
X-1905875Y88900D03*
D24*
G01*
X-3987800Y-2642475D03*
D25*
G01*
X-3987800Y-2793124D03*
D20*
G01*
X-3125075Y-2755900D03*
D21*
G01*
X-3275724Y-2755900D03*
D24*
G01*
X-2705100Y-2629775D03*
D25*
G01*
X-2705100Y-2780424D03*
D20*
G01*
X-1855075Y-2768600D03*
D21*
G01*
X-2005724Y-2768600D03*
D22*
G01*
X-2031124Y4889500D03*
D23*
G01*
X-1880475Y4889500D03*
D22*
G01*
X-2005724Y5283200D03*
D23*
G01*
X-1855075Y5283200D03*
D20*
G01*
X-3150475Y4597400D03*
D21*
G01*
X-3301124Y4597400D03*
D20*
G01*
X-3175875Y1739900D03*
D21*
G01*
X-3326524Y1739900D03*
D22*
G01*
X-3377324Y3924300D03*
D23*
G01*
X-3226675Y3924300D03*
D26*
G01*
X-3138495Y4927600D03*
D27*
G01*
X-3338504Y4927600D03*
D28*
G01*
X-3454400Y2269489D03*
G01*
X-3327400Y2269489D03*
G01*
X-3200400Y2269489D03*
G01*
X-3073400Y2269489D03*
G01*
X-3454400Y2810510D03*
G01*
X-3327400Y2810510D03*
G01*
X-3200400Y2810510D03*
G01*
X-3073400Y2810510D03*
M02*
