G04 Layer: TopSilkscreenLayer*
G04 EasyEDA v6.5.22, 2023-02-14 12:38:32*
G04 3ec02a8cd32b49f9a07c26a40bf890e6,7be1179030e74d40a97a3c751b95adb4,10*
G04 Gerber Generator version 0.2*
G04 Scale: 100 percent, Rotated: No, Reflected: No *
G04 Dimensions in millimeters *
G04 leading zeros omitted , absolute positions ,4 integer and 5 decimal *
%FSLAX45Y45*%
%MOMM*%

%ADD10C,0.7000*%
%ADD11C,0.1524*%
%ADD12C,0.1000*%
%ADD13C,0.1422*%
%ADD14C,0.0813*%
%ADD15C,0.2540*%
%ADD16C,0.1800*%
%ADD17C,0.1270*%
%ADD18C,0.3000*%
%ADD19C,0.0123*%

%LPD*%
D10*
X-2959100Y7135368D02*
G01*
X-2959100Y6848855D01*
X-2959100Y7135368D02*
G01*
X-2850134Y6848855D01*
X-2740913Y7135368D02*
G01*
X-2850134Y6848855D01*
X-2740913Y7135368D02*
G01*
X-2740913Y6848855D01*
X-2569210Y7135368D02*
G01*
X-2596387Y7121652D01*
X-2623565Y7094473D01*
X-2637281Y7067042D01*
X-2650997Y7026147D01*
X-2650997Y6958076D01*
X-2637281Y6917181D01*
X-2623565Y6889750D01*
X-2596387Y6862571D01*
X-2569210Y6848855D01*
X-2514600Y6848855D01*
X-2487168Y6862571D01*
X-2459989Y6889750D01*
X-2446273Y6917181D01*
X-2432812Y6958076D01*
X-2432812Y7026147D01*
X-2446273Y7067042D01*
X-2459989Y7094473D01*
X-2487168Y7121652D01*
X-2514600Y7135368D01*
X-2569210Y7135368D01*
X-2151887Y7135368D02*
G01*
X-2342642Y6848855D01*
X-2342642Y7135368D02*
G01*
X-2151887Y7135368D01*
X-2342642Y6848855D02*
G01*
X-2151887Y6848855D01*
X-1870963Y7135368D02*
G01*
X-2061718Y6848855D01*
X-2061718Y7135368D02*
G01*
X-1870963Y7135368D01*
X-2061718Y6848855D02*
G01*
X-1870963Y6848855D01*
X-1780794Y7135368D02*
G01*
X-1780794Y6848855D01*
X-3124200Y6652768D02*
G01*
X-3124200Y6366255D01*
X-3124200Y6652768D02*
G01*
X-2946907Y6652768D01*
X-3124200Y6516370D02*
G01*
X-3015234Y6516370D01*
X-2856992Y6652768D02*
G01*
X-2856992Y6366255D01*
X-2856992Y6652768D02*
G01*
X-2747771Y6366255D01*
X-2638805Y6652768D02*
G01*
X-2747771Y6366255D01*
X-2638805Y6652768D02*
G01*
X-2638805Y6366255D01*
X-2338831Y6652768D02*
G01*
X-2229612Y6366255D01*
X-2120645Y6652768D02*
G01*
X-2229612Y6366255D01*
X-1826005Y6584442D02*
G01*
X-1839721Y6611873D01*
X-1866900Y6639052D01*
X-1894078Y6652768D01*
X-1948687Y6652768D01*
X-1976120Y6639052D01*
X-2003297Y6611873D01*
X-2017013Y6584442D01*
X-2030476Y6543547D01*
X-2030476Y6475476D01*
X-2017013Y6434581D01*
X-2003297Y6407150D01*
X-1976120Y6379971D01*
X-1948687Y6366255D01*
X-1894078Y6366255D01*
X-1866900Y6379971D01*
X-1839721Y6407150D01*
X-1826005Y6434581D01*
X-1654302Y6652768D02*
G01*
X-1681479Y6639052D01*
X-1708657Y6611873D01*
X-1722373Y6584442D01*
X-1736089Y6543547D01*
X-1736089Y6475476D01*
X-1722373Y6434581D01*
X-1708657Y6407150D01*
X-1681479Y6379971D01*
X-1654302Y6366255D01*
X-1599692Y6366255D01*
X-1572260Y6379971D01*
X-1545081Y6407150D01*
X-1531365Y6434581D01*
X-1517904Y6475476D01*
X-1517904Y6543547D01*
X-1531365Y6584442D01*
X-1545081Y6611873D01*
X-1572260Y6639052D01*
X-1599692Y6652768D01*
X-1654302Y6652768D01*
D11*
X-2030221Y5880607D02*
G01*
X-2035555Y5891021D01*
X-2045970Y5901436D01*
X-2056129Y5906515D01*
X-2076957Y5906515D01*
X-2087371Y5901436D01*
X-2097786Y5891021D01*
X-2103120Y5880607D01*
X-2108200Y5864860D01*
X-2108200Y5838952D01*
X-2103120Y5823457D01*
X-2097786Y5813044D01*
X-2087371Y5802629D01*
X-2076957Y5797550D01*
X-2056129Y5797550D01*
X-2045970Y5802629D01*
X-2035555Y5813044D01*
X-2030221Y5823457D01*
X-1995931Y5885687D02*
G01*
X-1985518Y5891021D01*
X-1970023Y5906515D01*
X-1970023Y5797550D01*
X-2068321Y660907D02*
G01*
X-2073655Y671321D01*
X-2084070Y681736D01*
X-2094229Y686815D01*
X-2115057Y686815D01*
X-2125471Y681736D01*
X-2135886Y671321D01*
X-2141220Y660907D01*
X-2146300Y645160D01*
X-2146300Y619252D01*
X-2141220Y603757D01*
X-2135886Y593344D01*
X-2125471Y582929D01*
X-2115057Y577850D01*
X-2094229Y577850D01*
X-2084070Y582929D01*
X-2073655Y593344D01*
X-2068321Y603757D01*
X-1982215Y686815D02*
G01*
X-2034031Y614171D01*
X-1956054Y614171D01*
X-1982215Y686815D02*
G01*
X-1982215Y577850D01*
X-1992121Y2007107D02*
G01*
X-1997455Y2017521D01*
X-2007870Y2027936D01*
X-2018029Y2033015D01*
X-2038857Y2033015D01*
X-2049271Y2027936D01*
X-2059686Y2017521D01*
X-2065020Y2007107D01*
X-2070100Y1991360D01*
X-2070100Y1965452D01*
X-2065020Y1949957D01*
X-2059686Y1939544D01*
X-2049271Y1929129D01*
X-2038857Y1924050D01*
X-2018029Y1924050D01*
X-2007870Y1929129D01*
X-1997455Y1939544D01*
X-1992121Y1949957D01*
X-1895602Y2017521D02*
G01*
X-1900681Y2027936D01*
X-1916429Y2033015D01*
X-1926589Y2033015D01*
X-1942337Y2027936D01*
X-1952752Y2012187D01*
X-1957831Y1986279D01*
X-1957831Y1960371D01*
X-1952752Y1939544D01*
X-1942337Y1929129D01*
X-1926589Y1924050D01*
X-1921510Y1924050D01*
X-1906015Y1929129D01*
X-1895602Y1939544D01*
X-1890268Y1955037D01*
X-1890268Y1960371D01*
X-1895602Y1975865D01*
X-1906015Y1986279D01*
X-1921510Y1991360D01*
X-1926589Y1991360D01*
X-1942337Y1986279D01*
X-1952752Y1975865D01*
X-1957831Y1960371D01*
X-1865121Y3708907D02*
G01*
X-1870455Y3719321D01*
X-1880870Y3729736D01*
X-1891029Y3734815D01*
X-1911857Y3734815D01*
X-1922271Y3729736D01*
X-1932686Y3719321D01*
X-1938020Y3708907D01*
X-1943100Y3693160D01*
X-1943100Y3667252D01*
X-1938020Y3651757D01*
X-1932686Y3641344D01*
X-1922271Y3630929D01*
X-1911857Y3625850D01*
X-1891029Y3625850D01*
X-1880870Y3630929D01*
X-1870455Y3641344D01*
X-1865121Y3651757D01*
X-1758187Y3734815D02*
G01*
X-1810004Y3625850D01*
X-1830831Y3734815D02*
G01*
X-1758187Y3734815D01*
X-3643121Y4229607D02*
G01*
X-3648455Y4240021D01*
X-3658870Y4250436D01*
X-3669029Y4255515D01*
X-3689857Y4255515D01*
X-3700271Y4250436D01*
X-3710686Y4240021D01*
X-3716020Y4229607D01*
X-3721100Y4213860D01*
X-3721100Y4187952D01*
X-3716020Y4172457D01*
X-3710686Y4162044D01*
X-3700271Y4151629D01*
X-3689857Y4146550D01*
X-3669029Y4146550D01*
X-3658870Y4151629D01*
X-3648455Y4162044D01*
X-3643121Y4172457D01*
X-3541268Y4219194D02*
G01*
X-3546602Y4203700D01*
X-3557015Y4193286D01*
X-3572510Y4187952D01*
X-3577589Y4187952D01*
X-3593337Y4193286D01*
X-3603752Y4203700D01*
X-3608831Y4219194D01*
X-3608831Y4224273D01*
X-3603752Y4240021D01*
X-3593337Y4250436D01*
X-3577589Y4255515D01*
X-3572510Y4255515D01*
X-3557015Y4250436D01*
X-3546602Y4240021D01*
X-3541268Y4219194D01*
X-3541268Y4193286D01*
X-3546602Y4167123D01*
X-3557015Y4151629D01*
X-3572510Y4146550D01*
X-3582923Y4146550D01*
X-3598418Y4151629D01*
X-3603752Y4162044D01*
X-2982721Y3810507D02*
G01*
X-2988055Y3820921D01*
X-2998470Y3831336D01*
X-3008629Y3836415D01*
X-3029457Y3836415D01*
X-3039871Y3831336D01*
X-3050286Y3820921D01*
X-3055620Y3810507D01*
X-3060700Y3794760D01*
X-3060700Y3768852D01*
X-3055620Y3753357D01*
X-3050286Y3742944D01*
X-3039871Y3732529D01*
X-3029457Y3727450D01*
X-3008629Y3727450D01*
X-2998470Y3732529D01*
X-2988055Y3742944D01*
X-2982721Y3753357D01*
X-2948431Y3815587D02*
G01*
X-2938018Y3820921D01*
X-2922523Y3836415D01*
X-2922523Y3727450D01*
X-2856992Y3836415D02*
G01*
X-2872739Y3831336D01*
X-2882900Y3815587D01*
X-2888234Y3789679D01*
X-2888234Y3774186D01*
X-2882900Y3748023D01*
X-2872739Y3732529D01*
X-2856992Y3727450D01*
X-2846578Y3727450D01*
X-2831084Y3732529D01*
X-2820670Y3748023D01*
X-2815589Y3774186D01*
X-2815589Y3789679D01*
X-2820670Y3815587D01*
X-2831084Y3831336D01*
X-2846578Y3836415D01*
X-2856992Y3836415D01*
X-620521Y-2514092D02*
G01*
X-625855Y-2503678D01*
X-636270Y-2493263D01*
X-646429Y-2488184D01*
X-667257Y-2488184D01*
X-677671Y-2493263D01*
X-688086Y-2503678D01*
X-693420Y-2514092D01*
X-698500Y-2529839D01*
X-698500Y-2555747D01*
X-693420Y-2571242D01*
X-688086Y-2581655D01*
X-677671Y-2592070D01*
X-667257Y-2597150D01*
X-646429Y-2597150D01*
X-636270Y-2592070D01*
X-625855Y-2581655D01*
X-620521Y-2571242D01*
X-586231Y-2509012D02*
G01*
X-575818Y-2503678D01*
X-560323Y-2488184D01*
X-560323Y-2597150D01*
X-520700Y-2514092D02*
G01*
X-520700Y-2509012D01*
X-515620Y-2498597D01*
X-510539Y-2493263D01*
X-500126Y-2488184D01*
X-479297Y-2488184D01*
X-468884Y-2493263D01*
X-463550Y-2498597D01*
X-458470Y-2509012D01*
X-458470Y-2519426D01*
X-463550Y-2529839D01*
X-473963Y-2545334D01*
X-526034Y-2597150D01*
X-453389Y-2597150D01*
X-3630421Y-2971292D02*
G01*
X-3635755Y-2960878D01*
X-3646170Y-2950463D01*
X-3656329Y-2945384D01*
X-3677157Y-2945384D01*
X-3687571Y-2950463D01*
X-3697986Y-2960878D01*
X-3703320Y-2971292D01*
X-3708400Y-2987039D01*
X-3708400Y-3012947D01*
X-3703320Y-3028442D01*
X-3697986Y-3038855D01*
X-3687571Y-3049270D01*
X-3677157Y-3054350D01*
X-3656329Y-3054350D01*
X-3646170Y-3049270D01*
X-3635755Y-3038855D01*
X-3630421Y-3028442D01*
X-3596131Y-2966212D02*
G01*
X-3585718Y-2960878D01*
X-3570223Y-2945384D01*
X-3570223Y-3054350D01*
X-3525520Y-2945384D02*
G01*
X-3468370Y-2945384D01*
X-3499612Y-2987039D01*
X-3483863Y-2987039D01*
X-3473450Y-2992120D01*
X-3468370Y-2997200D01*
X-3463289Y-3012947D01*
X-3463289Y-3023362D01*
X-3468370Y-3038855D01*
X-3478784Y-3049270D01*
X-3494278Y-3054350D01*
X-3510026Y-3054350D01*
X-3525520Y-3049270D01*
X-3530600Y-3044189D01*
X-3535934Y-3033776D01*
X-2385821Y-2971292D02*
G01*
X-2391155Y-2960878D01*
X-2401570Y-2950463D01*
X-2411729Y-2945384D01*
X-2432557Y-2945384D01*
X-2442971Y-2950463D01*
X-2453386Y-2960878D01*
X-2458720Y-2971292D01*
X-2463800Y-2987039D01*
X-2463800Y-3012947D01*
X-2458720Y-3028442D01*
X-2453386Y-3038855D01*
X-2442971Y-3049270D01*
X-2432557Y-3054350D01*
X-2411729Y-3054350D01*
X-2401570Y-3049270D01*
X-2391155Y-3038855D01*
X-2385821Y-3028442D01*
X-2351531Y-2966212D02*
G01*
X-2341118Y-2960878D01*
X-2325623Y-2945384D01*
X-2325623Y-3054350D01*
X-2239263Y-2945384D02*
G01*
X-2291334Y-3018028D01*
X-2213355Y-3018028D01*
X-2239263Y-2945384D02*
G01*
X-2239263Y-3054350D01*
X-1941321Y4470907D02*
G01*
X-1946655Y4481321D01*
X-1957070Y4491736D01*
X-1967229Y4496815D01*
X-1988057Y4496815D01*
X-1998471Y4491736D01*
X-2008886Y4481321D01*
X-2014220Y4470907D01*
X-2019300Y4455160D01*
X-2019300Y4429252D01*
X-2014220Y4413757D01*
X-2008886Y4403344D01*
X-1998471Y4392929D01*
X-1988057Y4387850D01*
X-1967229Y4387850D01*
X-1957070Y4392929D01*
X-1946655Y4403344D01*
X-1941321Y4413757D01*
X-1865629Y4496815D02*
G01*
X-1907031Y4387850D01*
X-1865629Y4496815D02*
G01*
X-1823973Y4387850D01*
X-1891537Y4424171D02*
G01*
X-1839468Y4424171D01*
X-1789684Y4496815D02*
G01*
X-1789684Y4387850D01*
X-1789684Y4496815D02*
G01*
X-1742947Y4496815D01*
X-1727200Y4491736D01*
X-1722120Y4486402D01*
X-1717039Y4475987D01*
X-1717039Y4465573D01*
X-1722120Y4455160D01*
X-1727200Y4450079D01*
X-1742947Y4445000D01*
X-1789684Y4445000D01*
X-1753362Y4445000D02*
G01*
X-1717039Y4387850D01*
X-1682750Y4496815D02*
G01*
X-1682750Y4387850D01*
X-1682750Y4496815D02*
G01*
X-1635760Y4496815D01*
X-1620265Y4491736D01*
X-1615186Y4486402D01*
X-1609852Y4475987D01*
X-1609852Y4465573D01*
X-1615186Y4455160D01*
X-1620265Y4450079D01*
X-1635760Y4445000D01*
X-1682750Y4445000D01*
X-1646173Y4445000D02*
G01*
X-1609852Y4387850D01*
X-1570481Y4413757D02*
G01*
X-1575562Y4408423D01*
X-1570481Y4403344D01*
X-1565147Y4408423D01*
X-1570481Y4413757D01*
X-1530857Y4496815D02*
G01*
X-1530857Y4387850D01*
X-1530857Y4496815D02*
G01*
X-1463294Y4496815D01*
X-1530857Y4445000D02*
G01*
X-1489455Y4445000D01*
X-1429004Y4496815D02*
G01*
X-1429004Y4387850D01*
X-1429004Y4496815D02*
G01*
X-1382268Y4496815D01*
X-1366773Y4491736D01*
X-1361439Y4486402D01*
X-1356360Y4475987D01*
X-1356360Y4465573D01*
X-1361439Y4455160D01*
X-1366773Y4450079D01*
X-1382268Y4445000D01*
X-1429004Y4445000D01*
X-1392681Y4445000D02*
G01*
X-1356360Y4387850D01*
X-1322070Y4496815D02*
G01*
X-1322070Y4387850D01*
X-1322070Y4496815D02*
G01*
X-1254505Y4496815D01*
X-1322070Y4445000D02*
G01*
X-1280413Y4445000D01*
X-1322070Y4387850D02*
G01*
X-1254505Y4387850D01*
X-1188973Y4496815D02*
G01*
X-1199387Y4491736D01*
X-1209802Y4481321D01*
X-1215136Y4470907D01*
X-1220215Y4455160D01*
X-1220215Y4429252D01*
X-1215136Y4413757D01*
X-1209802Y4403344D01*
X-1199387Y4392929D01*
X-1188973Y4387850D01*
X-1168400Y4387850D01*
X-1157986Y4392929D01*
X-1147571Y4403344D01*
X-1142237Y4413757D01*
X-1137157Y4429252D01*
X-1137157Y4455160D01*
X-1142237Y4470907D01*
X-1147571Y4481321D01*
X-1157986Y4491736D01*
X-1168400Y4496815D01*
X-1188973Y4496815D01*
X-1173479Y4408423D02*
G01*
X-1142237Y4377436D01*
D12*
X-1222496Y3338614D02*
G01*
X-1213352Y3343186D01*
X-1199890Y3356902D01*
X-1199890Y3261398D01*
X-977927Y3334039D02*
G01*
X-977927Y3338611D01*
X-973355Y3347755D01*
X-968783Y3352327D01*
X-959639Y3356899D01*
X-941605Y3356899D01*
X-932461Y3352327D01*
X-927889Y3347755D01*
X-923317Y3338611D01*
X-923317Y3329467D01*
X-927889Y3320577D01*
X-937033Y3306861D01*
X-982499Y3261395D01*
X-918745Y3261395D01*
X-733356Y3356902D02*
G01*
X-683318Y3356902D01*
X-710496Y3320580D01*
X-697034Y3320580D01*
X-687890Y3316008D01*
X-683318Y3311436D01*
X-678746Y3297720D01*
X-678746Y3288830D01*
X-683318Y3275114D01*
X-692462Y3265970D01*
X-706178Y3261398D01*
X-719640Y3261398D01*
X-733356Y3265970D01*
X-737928Y3270542D01*
X-742500Y3279686D01*
D11*
X-2006600Y2731515D02*
G01*
X-2006600Y2622550D01*
X-2006600Y2731515D02*
G01*
X-1964944Y2622550D01*
X-1923542Y2731515D02*
G01*
X-1964944Y2622550D01*
X-1923542Y2731515D02*
G01*
X-1923542Y2622550D01*
X-1858010Y2731515D02*
G01*
X-1868423Y2726436D01*
X-1878837Y2716021D01*
X-1883918Y2705607D01*
X-1889252Y2689860D01*
X-1889252Y2663952D01*
X-1883918Y2648457D01*
X-1878837Y2638044D01*
X-1868423Y2627629D01*
X-1858010Y2622550D01*
X-1837181Y2622550D01*
X-1826768Y2627629D01*
X-1816354Y2638044D01*
X-1811273Y2648457D01*
X-1805939Y2663952D01*
X-1805939Y2689860D01*
X-1811273Y2705607D01*
X-1816354Y2716021D01*
X-1826768Y2726436D01*
X-1837181Y2731515D01*
X-1858010Y2731515D01*
X-1771650Y2731515D02*
G01*
X-1771650Y2622550D01*
X-1771650Y2731515D02*
G01*
X-1735328Y2731515D01*
X-1719834Y2726436D01*
X-1709420Y2716021D01*
X-1704339Y2705607D01*
X-1699005Y2689860D01*
X-1699005Y2663952D01*
X-1704339Y2648457D01*
X-1709420Y2638044D01*
X-1719834Y2627629D01*
X-1735328Y2622550D01*
X-1771650Y2622550D01*
X-1659636Y2648457D02*
G01*
X-1664715Y2643123D01*
X-1659636Y2638044D01*
X-1654302Y2643123D01*
X-1659636Y2648457D01*
X-1620012Y2731515D02*
G01*
X-1620012Y2622550D01*
X-1620012Y2731515D02*
G01*
X-1552447Y2731515D01*
X-1620012Y2679700D02*
G01*
X-1578610Y2679700D01*
X-1518157Y2731515D02*
G01*
X-1518157Y2622550D01*
X-1518157Y2731515D02*
G01*
X-1471421Y2731515D01*
X-1455928Y2726436D01*
X-1450594Y2721102D01*
X-1445513Y2710687D01*
X-1445513Y2700273D01*
X-1450594Y2689860D01*
X-1455928Y2684779D01*
X-1471421Y2679700D01*
X-1518157Y2679700D01*
X-1481836Y2679700D02*
G01*
X-1445513Y2622550D01*
X-1411223Y2731515D02*
G01*
X-1411223Y2622550D01*
X-1411223Y2731515D02*
G01*
X-1343660Y2731515D01*
X-1411223Y2679700D02*
G01*
X-1369568Y2679700D01*
X-1411223Y2622550D02*
G01*
X-1343660Y2622550D01*
X-1278128Y2731515D02*
G01*
X-1288542Y2726436D01*
X-1298955Y2716021D01*
X-1304289Y2705607D01*
X-1309370Y2689860D01*
X-1309370Y2663952D01*
X-1304289Y2648457D01*
X-1298955Y2638044D01*
X-1288542Y2627629D01*
X-1278128Y2622550D01*
X-1257300Y2622550D01*
X-1247139Y2627629D01*
X-1236726Y2638044D01*
X-1231392Y2648457D01*
X-1226312Y2663952D01*
X-1226312Y2689860D01*
X-1231392Y2705607D01*
X-1236726Y2716021D01*
X-1247139Y2726436D01*
X-1257300Y2731515D01*
X-1278128Y2731515D01*
X-1262634Y2643123D02*
G01*
X-1231392Y2612136D01*
D12*
X-1222496Y1586014D02*
G01*
X-1213352Y1590586D01*
X-1199890Y1604302D01*
X-1199890Y1508798D01*
X-977927Y1581439D02*
G01*
X-977927Y1586011D01*
X-973355Y1595155D01*
X-968783Y1599727D01*
X-959639Y1604299D01*
X-941605Y1604299D01*
X-932461Y1599727D01*
X-927889Y1595155D01*
X-923317Y1586011D01*
X-923317Y1576867D01*
X-927889Y1567977D01*
X-937033Y1554261D01*
X-982499Y1508795D01*
X-918745Y1508795D01*
X-733356Y1604302D02*
G01*
X-683318Y1604302D01*
X-710496Y1567980D01*
X-697034Y1567980D01*
X-687890Y1563408D01*
X-683318Y1558836D01*
X-678746Y1545120D01*
X-678746Y1536230D01*
X-683318Y1522514D01*
X-692462Y1513370D01*
X-706178Y1508798D01*
X-719640Y1508798D01*
X-733356Y1513370D01*
X-737928Y1517942D01*
X-742500Y1527086D01*
D11*
X-1993900Y1017015D02*
G01*
X-1993900Y908050D01*
X-1993900Y1017015D02*
G01*
X-1952244Y908050D01*
X-1910842Y1017015D02*
G01*
X-1952244Y908050D01*
X-1910842Y1017015D02*
G01*
X-1910842Y908050D01*
X-1845310Y1017015D02*
G01*
X-1855723Y1011936D01*
X-1866137Y1001521D01*
X-1871218Y991107D01*
X-1876552Y975360D01*
X-1876552Y949452D01*
X-1871218Y933957D01*
X-1866137Y923544D01*
X-1855723Y913129D01*
X-1845310Y908050D01*
X-1824481Y908050D01*
X-1814068Y913129D01*
X-1803654Y923544D01*
X-1798573Y933957D01*
X-1793239Y949452D01*
X-1793239Y975360D01*
X-1798573Y991107D01*
X-1803654Y1001521D01*
X-1814068Y1011936D01*
X-1824481Y1017015D01*
X-1845310Y1017015D01*
X-1758950Y1017015D02*
G01*
X-1758950Y908050D01*
X-1758950Y1017015D02*
G01*
X-1722628Y1017015D01*
X-1707134Y1011936D01*
X-1696720Y1001521D01*
X-1691639Y991107D01*
X-1686305Y975360D01*
X-1686305Y949452D01*
X-1691639Y933957D01*
X-1696720Y923544D01*
X-1707134Y913129D01*
X-1722628Y908050D01*
X-1758950Y908050D01*
X-1646936Y933957D02*
G01*
X-1652015Y928623D01*
X-1646936Y923544D01*
X-1641602Y928623D01*
X-1646936Y933957D01*
X-1607312Y1017015D02*
G01*
X-1607312Y908050D01*
X-1607312Y908050D02*
G01*
X-1545081Y908050D01*
X-1510792Y1017015D02*
G01*
X-1469136Y908050D01*
X-1427479Y1017015D02*
G01*
X-1469136Y908050D01*
X-1393189Y1017015D02*
G01*
X-1393189Y908050D01*
X-1393189Y908050D02*
G01*
X-1330960Y908050D01*
D12*
X-1222496Y-191985D02*
G01*
X-1213352Y-187413D01*
X-1199890Y-173697D01*
X-1199890Y-269201D01*
X-977927Y-196560D02*
G01*
X-977927Y-191988D01*
X-973355Y-182844D01*
X-968783Y-178272D01*
X-959639Y-173700D01*
X-941605Y-173700D01*
X-932461Y-178272D01*
X-927889Y-182844D01*
X-923317Y-191988D01*
X-923317Y-201132D01*
X-927889Y-210022D01*
X-937033Y-223738D01*
X-982499Y-269204D01*
X-918745Y-269204D01*
X-733356Y-173697D02*
G01*
X-683318Y-173697D01*
X-710496Y-210019D01*
X-697034Y-210019D01*
X-687890Y-214591D01*
X-683318Y-219163D01*
X-678746Y-232879D01*
X-678746Y-241769D01*
X-683318Y-255485D01*
X-692462Y-264629D01*
X-706178Y-269201D01*
X-719640Y-269201D01*
X-733356Y-264629D01*
X-737928Y-260057D01*
X-742500Y-250913D01*
D11*
X-3516121Y-1244092D02*
G01*
X-3521455Y-1233678D01*
X-3531870Y-1223263D01*
X-3542029Y-1218184D01*
X-3562857Y-1218184D01*
X-3573271Y-1223263D01*
X-3583686Y-1233678D01*
X-3589020Y-1244092D01*
X-3594100Y-1259839D01*
X-3594100Y-1285747D01*
X-3589020Y-1301242D01*
X-3583686Y-1311655D01*
X-3573271Y-1322070D01*
X-3562857Y-1327150D01*
X-3542029Y-1327150D01*
X-3531870Y-1322070D01*
X-3521455Y-1311655D01*
X-3516121Y-1301242D01*
X-3481831Y-1218184D02*
G01*
X-3440429Y-1327150D01*
X-3398773Y-1218184D02*
G01*
X-3440429Y-1327150D01*
X-3364484Y-1363726D02*
G01*
X-3271012Y-1363726D01*
X-3236721Y-1218184D02*
G01*
X-3236721Y-1327150D01*
X-3236721Y-1218184D02*
G01*
X-3169157Y-1218184D01*
X-3236721Y-1270000D02*
G01*
X-3195065Y-1270000D01*
X-3134868Y-1218184D02*
G01*
X-3134868Y-1327150D01*
X-3134868Y-1218184D02*
G01*
X-3088131Y-1218184D01*
X-3072384Y-1223263D01*
X-3067304Y-1228597D01*
X-3061970Y-1239012D01*
X-3061970Y-1249426D01*
X-3067304Y-1259839D01*
X-3072384Y-1264920D01*
X-3088131Y-1270000D01*
X-3134868Y-1270000D01*
X-3098545Y-1270000D02*
G01*
X-3061970Y-1327150D01*
X-3027679Y-1218184D02*
G01*
X-3027679Y-1327150D01*
X-3027679Y-1218184D02*
G01*
X-2960370Y-1218184D01*
X-3027679Y-1270000D02*
G01*
X-2986278Y-1270000D01*
X-3027679Y-1327150D02*
G01*
X-2960370Y-1327150D01*
X-2894837Y-1218184D02*
G01*
X-2905252Y-1223263D01*
X-2915665Y-1233678D01*
X-2920745Y-1244092D01*
X-2926079Y-1259839D01*
X-2926079Y-1285747D01*
X-2920745Y-1301242D01*
X-2915665Y-1311655D01*
X-2905252Y-1322070D01*
X-2894837Y-1327150D01*
X-2874010Y-1327150D01*
X-2863595Y-1322070D01*
X-2853181Y-1311655D01*
X-2848102Y-1301242D01*
X-2842768Y-1285747D01*
X-2842768Y-1259839D01*
X-2848102Y-1244092D01*
X-2853181Y-1233678D01*
X-2863595Y-1223263D01*
X-2874010Y-1218184D01*
X-2894837Y-1218184D01*
X-2879089Y-1306576D02*
G01*
X-2848102Y-1337563D01*
X-2271521Y-1244092D02*
G01*
X-2276855Y-1233678D01*
X-2287270Y-1223263D01*
X-2297429Y-1218184D01*
X-2318257Y-1218184D01*
X-2328671Y-1223263D01*
X-2339086Y-1233678D01*
X-2344420Y-1244092D01*
X-2349500Y-1259839D01*
X-2349500Y-1285747D01*
X-2344420Y-1301242D01*
X-2339086Y-1311655D01*
X-2328671Y-1322070D01*
X-2318257Y-1327150D01*
X-2297429Y-1327150D01*
X-2287270Y-1322070D01*
X-2276855Y-1311655D01*
X-2271521Y-1301242D01*
X-2237231Y-1218184D02*
G01*
X-2195829Y-1327150D01*
X-2154173Y-1218184D02*
G01*
X-2195829Y-1327150D01*
X-2119884Y-1363726D02*
G01*
X-2026412Y-1363726D01*
X-1992121Y-1218184D02*
G01*
X-1992121Y-1327150D01*
X-1992121Y-1327150D02*
G01*
X-1929637Y-1327150D01*
X-1895347Y-1218184D02*
G01*
X-1853945Y-1327150D01*
X-1812289Y-1218184D02*
G01*
X-1853945Y-1327150D01*
X-1778000Y-1218184D02*
G01*
X-1778000Y-1327150D01*
X-1778000Y-1327150D02*
G01*
X-1715770Y-1327150D01*
X-1001521Y6185407D02*
G01*
X-1006855Y6195821D01*
X-1017270Y6206236D01*
X-1027429Y6211315D01*
X-1048257Y6211315D01*
X-1058671Y6206236D01*
X-1069086Y6195821D01*
X-1074420Y6185407D01*
X-1079500Y6169660D01*
X-1079500Y6143752D01*
X-1074420Y6128257D01*
X-1069086Y6117844D01*
X-1058671Y6107429D01*
X-1048257Y6102350D01*
X-1027429Y6102350D01*
X-1017270Y6107429D01*
X-1006855Y6117844D01*
X-1001521Y6128257D01*
X-967231Y6211315D02*
G01*
X-925829Y6102350D01*
X-884173Y6211315D02*
G01*
X-925829Y6102350D01*
X-1048257Y-3186684D02*
G01*
X-1058671Y-3191763D01*
X-1069086Y-3202178D01*
X-1074420Y-3212592D01*
X-1079500Y-3228339D01*
X-1079500Y-3254247D01*
X-1074420Y-3269742D01*
X-1069086Y-3280155D01*
X-1058671Y-3290570D01*
X-1048257Y-3295650D01*
X-1027429Y-3295650D01*
X-1017270Y-3290570D01*
X-1006855Y-3280155D01*
X-1001521Y-3269742D01*
X-996442Y-3254247D01*
X-996442Y-3228339D01*
X-1001521Y-3212592D01*
X-1006855Y-3202178D01*
X-1017270Y-3191763D01*
X-1027429Y-3186684D01*
X-1048257Y-3186684D01*
X-962152Y-3186684D02*
G01*
X-962152Y-3264662D01*
X-956818Y-3280155D01*
X-946404Y-3290570D01*
X-930910Y-3295650D01*
X-920495Y-3295650D01*
X-905002Y-3290570D01*
X-894587Y-3280155D01*
X-889254Y-3264662D01*
X-889254Y-3186684D01*
X-818642Y-3186684D02*
G01*
X-818642Y-3295650D01*
X-854963Y-3186684D02*
G01*
X-782320Y-3186684D01*
X-2196084Y3759200D02*
G01*
X-2305050Y3759200D01*
X-2196084Y3759200D02*
G01*
X-2305050Y3717544D01*
X-2196084Y3676142D02*
G01*
X-2305050Y3717544D01*
X-2196084Y3676142D02*
G01*
X-2305050Y3676142D01*
X-2216912Y3641852D02*
G01*
X-2211578Y3631437D01*
X-2196084Y3615689D01*
X-2305050Y3615689D01*
D13*
X-3046476Y5701029D02*
G01*
X-3167634Y5701029D01*
X-3191763Y5692902D01*
X-3208020Y5676900D01*
X-3216147Y5652515D01*
X-3216147Y5636260D01*
X-3208020Y5612129D01*
X-3191763Y5595873D01*
X-3167634Y5588000D01*
X-3046476Y5588000D01*
X-3070605Y5421376D02*
G01*
X-3054350Y5437631D01*
X-3046476Y5461762D01*
X-3046476Y5494020D01*
X-3054350Y5518404D01*
X-3070605Y5534660D01*
X-3086862Y5534660D01*
X-3102863Y5526531D01*
X-3110992Y5518404D01*
X-3119120Y5502147D01*
X-3135376Y5453634D01*
X-3143250Y5437631D01*
X-3151378Y5429504D01*
X-3167634Y5421376D01*
X-3191763Y5421376D01*
X-3208020Y5437631D01*
X-3216147Y5461762D01*
X-3216147Y5494020D01*
X-3208020Y5518404D01*
X-3191763Y5534660D01*
X-3046476Y5368036D02*
G01*
X-3216147Y5368036D01*
X-3046476Y5368036D02*
G01*
X-3046476Y5295392D01*
X-3054350Y5271007D01*
X-3062478Y5262879D01*
X-3078734Y5255005D01*
X-3094989Y5255005D01*
X-3110992Y5262879D01*
X-3119120Y5271007D01*
X-3127247Y5295392D01*
X-3127247Y5368036D02*
G01*
X-3127247Y5295392D01*
X-3135376Y5271007D01*
X-3143250Y5262879D01*
X-3159505Y5255005D01*
X-3183889Y5255005D01*
X-3199892Y5262879D01*
X-3208020Y5271007D01*
X-3216147Y5295392D01*
X-3216147Y5368036D01*
D14*
X-3517900Y3277615D02*
G01*
X-3517900Y3180587D01*
X-3517900Y3277615D02*
G01*
X-3476244Y3277615D01*
X-3462528Y3272789D01*
X-3457955Y3268218D01*
X-3453129Y3259073D01*
X-3453129Y3249929D01*
X-3457955Y3240531D01*
X-3462528Y3235960D01*
X-3476244Y3231387D01*
X-3517900Y3231387D01*
X-3485642Y3231387D02*
G01*
X-3453129Y3180587D01*
X-3422650Y3277615D02*
G01*
X-3422650Y3180587D01*
X-3422650Y3277615D02*
G01*
X-3362705Y3277615D01*
X-3422650Y3231387D02*
G01*
X-3385820Y3231387D01*
X-3422650Y3180587D02*
G01*
X-3362705Y3180587D01*
X-3267710Y3263645D02*
G01*
X-3276854Y3272789D01*
X-3290570Y3277615D01*
X-3309112Y3277615D01*
X-3323081Y3272789D01*
X-3332226Y3263645D01*
X-3332226Y3254502D01*
X-3327654Y3245104D01*
X-3323081Y3240531D01*
X-3313684Y3235960D01*
X-3285997Y3226815D01*
X-3276854Y3221989D01*
X-3272281Y3217418D01*
X-3267710Y3208273D01*
X-3267710Y3194304D01*
X-3276854Y3185160D01*
X-3290570Y3180587D01*
X-3309112Y3180587D01*
X-3323081Y3185160D01*
X-3332226Y3194304D01*
X-3237229Y3277615D02*
G01*
X-3237229Y3180587D01*
X-3237229Y3277615D02*
G01*
X-3177031Y3277615D01*
X-3237229Y3231387D02*
G01*
X-3200145Y3231387D01*
X-3237229Y3180587D02*
G01*
X-3177031Y3180587D01*
X-3114294Y3277615D02*
G01*
X-3114294Y3180587D01*
X-3146552Y3277615D02*
G01*
X-3082036Y3277615D01*
D11*
X-1917700Y4242815D02*
G01*
X-1917700Y4133850D01*
X-1917700Y4242815D02*
G01*
X-1870963Y4242815D01*
X-1855470Y4237736D01*
X-1850136Y4232402D01*
X-1845055Y4221987D01*
X-1845055Y4211573D01*
X-1850136Y4201160D01*
X-1855470Y4196079D01*
X-1870963Y4191000D01*
X-1917700Y4191000D01*
X-1881378Y4191000D02*
G01*
X-1845055Y4133850D01*
X-1810765Y4221987D02*
G01*
X-1800352Y4227321D01*
X-1784604Y4242815D01*
X-1784604Y4133850D01*
X-2120900Y2426715D02*
G01*
X-2120900Y2317750D01*
X-2120900Y2426715D02*
G01*
X-2074163Y2426715D01*
X-2058670Y2421636D01*
X-2053336Y2416302D01*
X-2048255Y2405887D01*
X-2048255Y2395473D01*
X-2053336Y2385060D01*
X-2058670Y2379979D01*
X-2074163Y2374900D01*
X-2120900Y2374900D01*
X-2084578Y2374900D02*
G01*
X-2048255Y2317750D01*
X-2008631Y2400807D02*
G01*
X-2008631Y2405887D01*
X-2003552Y2416302D01*
X-1998218Y2421636D01*
X-1987804Y2426715D01*
X-1967229Y2426715D01*
X-1956815Y2421636D01*
X-1951481Y2416302D01*
X-1946402Y2405887D01*
X-1946402Y2395473D01*
X-1951481Y2385060D01*
X-1961895Y2369565D01*
X-2013965Y2317750D01*
X-1941068Y2317750D01*
X-2120900Y-62484D02*
G01*
X-2120900Y-171450D01*
X-2120900Y-62484D02*
G01*
X-2074163Y-62484D01*
X-2058670Y-67563D01*
X-2053336Y-72897D01*
X-2048255Y-83312D01*
X-2048255Y-93726D01*
X-2053336Y-104139D01*
X-2058670Y-109220D01*
X-2074163Y-114300D01*
X-2120900Y-114300D01*
X-2084578Y-114300D02*
G01*
X-2048255Y-171450D01*
X-2003552Y-62484D02*
G01*
X-1946402Y-62484D01*
X-1977389Y-104139D01*
X-1961895Y-104139D01*
X-1951481Y-109220D01*
X-1946402Y-114300D01*
X-1941068Y-130047D01*
X-1941068Y-140462D01*
X-1946402Y-155955D01*
X-1956815Y-166370D01*
X-1972310Y-171450D01*
X-1987804Y-171450D01*
X-2003552Y-166370D01*
X-2008631Y-161289D01*
X-2013965Y-150876D01*
X-4127500Y-2958084D02*
G01*
X-4127500Y-3067050D01*
X-4127500Y-2958084D02*
G01*
X-4080763Y-2958084D01*
X-4065270Y-2963163D01*
X-4059936Y-2968497D01*
X-4054855Y-2978912D01*
X-4054855Y-2989326D01*
X-4059936Y-2999739D01*
X-4065270Y-3004820D01*
X-4080763Y-3009900D01*
X-4127500Y-3009900D01*
X-4091178Y-3009900D02*
G01*
X-4054855Y-3067050D01*
X-3958081Y-2973578D02*
G01*
X-3963415Y-2963163D01*
X-3978910Y-2958084D01*
X-3989323Y-2958084D01*
X-4004818Y-2963163D01*
X-4015231Y-2978912D01*
X-4020565Y-3004820D01*
X-4020565Y-3030728D01*
X-4015231Y-3051555D01*
X-4004818Y-3061970D01*
X-3989323Y-3067050D01*
X-3983989Y-3067050D01*
X-3968495Y-3061970D01*
X-3958081Y-3051555D01*
X-3953002Y-3036062D01*
X-3953002Y-3030728D01*
X-3958081Y-3015234D01*
X-3968495Y-3004820D01*
X-3983989Y-2999739D01*
X-3989323Y-2999739D01*
X-4004818Y-3004820D01*
X-4015231Y-3015234D01*
X-4020565Y-3030728D01*
X-3251200Y-2996184D02*
G01*
X-3251200Y-3105150D01*
X-3251200Y-2996184D02*
G01*
X-3204463Y-2996184D01*
X-3188970Y-3001263D01*
X-3183636Y-3006597D01*
X-3178555Y-3017012D01*
X-3178555Y-3027426D01*
X-3183636Y-3037839D01*
X-3188970Y-3042920D01*
X-3204463Y-3048000D01*
X-3251200Y-3048000D01*
X-3214878Y-3048000D02*
G01*
X-3178555Y-3105150D01*
X-3071368Y-2996184D02*
G01*
X-3123437Y-3105150D01*
X-3144265Y-2996184D02*
G01*
X-3071368Y-2996184D01*
X-2857500Y-2932684D02*
G01*
X-2857500Y-3041650D01*
X-2857500Y-2932684D02*
G01*
X-2810763Y-2932684D01*
X-2795270Y-2937763D01*
X-2789936Y-2943097D01*
X-2784855Y-2953512D01*
X-2784855Y-2963926D01*
X-2789936Y-2974339D01*
X-2795270Y-2979420D01*
X-2810763Y-2984500D01*
X-2857500Y-2984500D01*
X-2821178Y-2984500D02*
G01*
X-2784855Y-3041650D01*
X-2750565Y-2953512D02*
G01*
X-2740152Y-2948178D01*
X-2724404Y-2932684D01*
X-2724404Y-3041650D01*
X-2659126Y-2932684D02*
G01*
X-2674620Y-2937763D01*
X-2685034Y-2953512D01*
X-2690113Y-2979420D01*
X-2690113Y-2994913D01*
X-2685034Y-3021076D01*
X-2674620Y-3036570D01*
X-2659126Y-3041650D01*
X-2648712Y-3041650D01*
X-2632963Y-3036570D01*
X-2622550Y-3021076D01*
X-2617470Y-2994913D01*
X-2617470Y-2979420D01*
X-2622550Y-2953512D01*
X-2632963Y-2937763D01*
X-2648712Y-2932684D01*
X-2659126Y-2932684D01*
X-1930400Y-2551684D02*
G01*
X-1930400Y-2660650D01*
X-1930400Y-2551684D02*
G01*
X-1883663Y-2551684D01*
X-1868170Y-2556763D01*
X-1862836Y-2562097D01*
X-1857755Y-2572512D01*
X-1857755Y-2582926D01*
X-1862836Y-2593339D01*
X-1868170Y-2598420D01*
X-1883663Y-2603500D01*
X-1930400Y-2603500D01*
X-1894078Y-2603500D02*
G01*
X-1857755Y-2660650D01*
X-1823465Y-2572512D02*
G01*
X-1813052Y-2567178D01*
X-1797304Y-2551684D01*
X-1797304Y-2660650D01*
X-1763013Y-2572512D02*
G01*
X-1752600Y-2567178D01*
X-1737105Y-2551684D01*
X-1737105Y-2660650D01*
X-2057400Y5119115D02*
G01*
X-2057400Y5010150D01*
X-2057400Y5119115D02*
G01*
X-2010663Y5119115D01*
X-1995170Y5114036D01*
X-1989836Y5108702D01*
X-1984755Y5098287D01*
X-1984755Y5087873D01*
X-1989836Y5077460D01*
X-1995170Y5072379D01*
X-2010663Y5067300D01*
X-2057400Y5067300D01*
X-2021078Y5067300D02*
G01*
X-1984755Y5010150D01*
X-1898395Y5119115D02*
G01*
X-1950465Y5046471D01*
X-1872487Y5046471D01*
X-1898395Y5119115D02*
G01*
X-1898395Y5010150D01*
X-2095500Y5500115D02*
G01*
X-2095500Y5391150D01*
X-2095500Y5500115D02*
G01*
X-2048763Y5500115D01*
X-2033270Y5495036D01*
X-2027936Y5489702D01*
X-2022855Y5479287D01*
X-2022855Y5468873D01*
X-2027936Y5458460D01*
X-2033270Y5453379D01*
X-2048763Y5448300D01*
X-2095500Y5448300D01*
X-2059178Y5448300D02*
G01*
X-2022855Y5391150D01*
X-1926081Y5500115D02*
G01*
X-1978152Y5500115D01*
X-1983231Y5453379D01*
X-1978152Y5458460D01*
X-1962404Y5463794D01*
X-1946910Y5463794D01*
X-1931415Y5458460D01*
X-1921002Y5448300D01*
X-1915668Y5432552D01*
X-1915668Y5422137D01*
X-1921002Y5406644D01*
X-1931415Y5396229D01*
X-1946910Y5391150D01*
X-1962404Y5391150D01*
X-1978152Y5396229D01*
X-1983231Y5401310D01*
X-1988565Y5411723D01*
X-3632200Y4649215D02*
G01*
X-3632200Y4540250D01*
X-3632200Y4649215D02*
G01*
X-3585463Y4649215D01*
X-3569970Y4644136D01*
X-3564636Y4638802D01*
X-3559555Y4628387D01*
X-3559555Y4617973D01*
X-3564636Y4607560D01*
X-3569970Y4602479D01*
X-3585463Y4597400D01*
X-3632200Y4597400D01*
X-3595878Y4597400D02*
G01*
X-3559555Y4540250D01*
X-3457702Y4612894D02*
G01*
X-3462781Y4597400D01*
X-3473195Y4586986D01*
X-3488689Y4581652D01*
X-3494023Y4581652D01*
X-3509518Y4586986D01*
X-3519931Y4597400D01*
X-3525265Y4612894D01*
X-3525265Y4617973D01*
X-3519931Y4633721D01*
X-3509518Y4644136D01*
X-3494023Y4649215D01*
X-3488689Y4649215D01*
X-3473195Y4644136D01*
X-3462781Y4633721D01*
X-3457702Y4612894D01*
X-3457702Y4586986D01*
X-3462781Y4560823D01*
X-3473195Y4545329D01*
X-3488689Y4540250D01*
X-3499104Y4540250D01*
X-3514852Y4545329D01*
X-3519931Y4555744D01*
X-3251200Y1956815D02*
G01*
X-3251200Y1847850D01*
X-3251200Y1956815D02*
G01*
X-3204463Y1956815D01*
X-3188970Y1951736D01*
X-3183636Y1946402D01*
X-3178555Y1935987D01*
X-3178555Y1925573D01*
X-3183636Y1915160D01*
X-3188970Y1910079D01*
X-3204463Y1905000D01*
X-3251200Y1905000D01*
X-3214878Y1905000D02*
G01*
X-3178555Y1847850D01*
X-3144265Y1935987D02*
G01*
X-3133852Y1941321D01*
X-3118104Y1956815D01*
X-3118104Y1847850D01*
X-3073400Y1956815D02*
G01*
X-3016250Y1956815D01*
X-3047492Y1915160D01*
X-3031997Y1915160D01*
X-3021584Y1910079D01*
X-3016250Y1905000D01*
X-3011170Y1889252D01*
X-3011170Y1878837D01*
X-3016250Y1863344D01*
X-3026663Y1852929D01*
X-3042412Y1847850D01*
X-3057905Y1847850D01*
X-3073400Y1852929D01*
X-3078734Y1858010D01*
X-3083813Y1868423D01*
X-3721100Y3950715D02*
G01*
X-3721100Y3841750D01*
X-3721100Y3950715D02*
G01*
X-3674363Y3950715D01*
X-3658870Y3945636D01*
X-3653536Y3940302D01*
X-3648455Y3929887D01*
X-3648455Y3919473D01*
X-3653536Y3909060D01*
X-3658870Y3903979D01*
X-3674363Y3898900D01*
X-3721100Y3898900D01*
X-3684778Y3898900D02*
G01*
X-3648455Y3841750D01*
X-3614165Y3929887D02*
G01*
X-3603752Y3935221D01*
X-3588004Y3950715D01*
X-3588004Y3841750D01*
X-3501897Y3950715D02*
G01*
X-3553713Y3878071D01*
X-3475989Y3878071D01*
X-3501897Y3950715D02*
G01*
X-3501897Y3841750D01*
X-3657600Y4928615D02*
G01*
X-3657600Y4819650D01*
X-3657600Y4928615D02*
G01*
X-3610863Y4928615D01*
X-3595370Y4923536D01*
X-3590036Y4918202D01*
X-3584955Y4907787D01*
X-3584955Y4897373D01*
X-3590036Y4886960D01*
X-3595370Y4881879D01*
X-3610863Y4876800D01*
X-3657600Y4876800D01*
X-3621278Y4876800D02*
G01*
X-3584955Y4819650D01*
X-3524504Y4928615D02*
G01*
X-3540252Y4923536D01*
X-3545331Y4913121D01*
X-3545331Y4902707D01*
X-3540252Y4892294D01*
X-3529837Y4886960D01*
X-3509010Y4881879D01*
X-3493515Y4876800D01*
X-3483102Y4866386D01*
X-3477768Y4855971D01*
X-3477768Y4840223D01*
X-3483102Y4829810D01*
X-3488181Y4824729D01*
X-3503929Y4819650D01*
X-3524504Y4819650D01*
X-3540252Y4824729D01*
X-3545331Y4829810D01*
X-3550665Y4840223D01*
X-3550665Y4855971D01*
X-3545331Y4866386D01*
X-3534918Y4876800D01*
X-3519423Y4881879D01*
X-3498595Y4886960D01*
X-3488181Y4892294D01*
X-3483102Y4902707D01*
X-3483102Y4913121D01*
X-3488181Y4923536D01*
X-3503929Y4928615D01*
X-3524504Y4928615D01*
X-3289300Y3061715D02*
G01*
X-3289300Y2983737D01*
X-3284220Y2968244D01*
X-3273805Y2957829D01*
X-3258057Y2952750D01*
X-3247644Y2952750D01*
X-3232150Y2957829D01*
X-3221736Y2968244D01*
X-3216655Y2983737D01*
X-3216655Y3061715D01*
X-3182365Y3040887D02*
G01*
X-3171952Y3046221D01*
X-3156204Y3061715D01*
X-3156204Y2952750D01*
D15*
X-2069401Y5636922D02*
G01*
X-2069401Y5716925D01*
X-1958426Y5605937D02*
G01*
X-2038423Y5605937D01*
X-1958426Y5747903D02*
G01*
X-2038423Y5747903D01*
X-1900836Y5605355D02*
G01*
X-1820837Y5605355D01*
X-1789854Y5636338D02*
G01*
X-1789854Y5716336D01*
X-1900836Y5747316D02*
G01*
X-1820837Y5747316D01*
X-2120201Y379122D02*
G01*
X-2120201Y459125D01*
X-2009226Y348137D02*
G01*
X-2089223Y348137D01*
X-2009226Y490103D02*
G01*
X-2089223Y490103D01*
X-1951636Y347555D02*
G01*
X-1871637Y347555D01*
X-1840654Y378538D02*
G01*
X-1840654Y458536D01*
X-1951636Y489516D02*
G01*
X-1871637Y489516D01*
X-2069401Y1738022D02*
G01*
X-2069401Y1818025D01*
X-1958426Y1707037D02*
G01*
X-2038423Y1707037D01*
X-1958426Y1849003D02*
G01*
X-2038423Y1849003D01*
X-1900836Y1706455D02*
G01*
X-1820837Y1706455D01*
X-1789854Y1737438D02*
G01*
X-1789854Y1817436D01*
X-1900836Y1848416D02*
G01*
X-1820837Y1848416D01*
X-1778698Y3557877D02*
G01*
X-1778698Y3477874D01*
X-1889673Y3588862D02*
G01*
X-1809676Y3588862D01*
X-1889673Y3446896D02*
G01*
X-1809676Y3446896D01*
X-1947263Y3589444D02*
G01*
X-2027262Y3589444D01*
X-2058245Y3558461D02*
G01*
X-2058245Y3478463D01*
X-1947263Y3447483D02*
G01*
X-2027262Y3447483D01*
X-3175698Y4243677D02*
G01*
X-3175698Y4163674D01*
X-3286673Y4274662D02*
G01*
X-3206676Y4274662D01*
X-3286673Y4132696D02*
G01*
X-3206676Y4132696D01*
X-3344263Y4275244D02*
G01*
X-3424262Y4275244D01*
X-3455245Y4244261D02*
G01*
X-3455245Y4164263D01*
X-3344263Y4133283D02*
G01*
X-3424262Y4133283D01*
X-2881022Y3950398D02*
G01*
X-2961025Y3950398D01*
X-2850037Y4061373D02*
G01*
X-2850037Y3981376D01*
X-2992003Y4061373D02*
G01*
X-2992003Y3981376D01*
X-2849455Y4118963D02*
G01*
X-2849455Y4198962D01*
X-2880438Y4229945D02*
G01*
X-2960436Y4229945D01*
X-2991416Y4118963D02*
G01*
X-2991416Y4198962D01*
X-534098Y-2665122D02*
G01*
X-534098Y-2745125D01*
X-645073Y-2634137D02*
G01*
X-565076Y-2634137D01*
X-645073Y-2776103D02*
G01*
X-565076Y-2776103D01*
X-702663Y-2633555D02*
G01*
X-782662Y-2633555D01*
X-813645Y-2664538D02*
G01*
X-813645Y-2744536D01*
X-702663Y-2775516D02*
G01*
X-782662Y-2775516D01*
X-3541422Y-2856801D02*
G01*
X-3621425Y-2856801D01*
X-3510437Y-2745826D02*
G01*
X-3510437Y-2825823D01*
X-3652403Y-2745826D02*
G01*
X-3652403Y-2825823D01*
X-3509855Y-2688236D02*
G01*
X-3509855Y-2608237D01*
X-3540838Y-2577254D02*
G01*
X-3620836Y-2577254D01*
X-3651816Y-2688236D02*
G01*
X-3651816Y-2608237D01*
X-2284122Y-2844101D02*
G01*
X-2364125Y-2844101D01*
X-2253137Y-2733126D02*
G01*
X-2253137Y-2813123D01*
X-2395103Y-2733126D02*
G01*
X-2395103Y-2813123D01*
X-2252555Y-2675536D02*
G01*
X-2252555Y-2595537D01*
X-2283538Y-2564554D02*
G01*
X-2363536Y-2564554D01*
X-2394516Y-2675536D02*
G01*
X-2394516Y-2595537D01*
X-952500Y3396899D02*
G01*
X-512500Y3396899D01*
X-512500Y4276897D01*
X-1392499Y4276897D01*
X-1392499Y3396899D01*
X-952500Y3396899D01*
X-952500Y1644299D02*
G01*
X-512500Y1644299D01*
X-512500Y2524297D01*
X-1392499Y2524297D01*
X-1392499Y1644299D01*
X-952500Y1644299D01*
X-952500Y-133700D02*
G01*
X-512500Y-133700D01*
X-512500Y746297D01*
X-1392499Y746297D01*
X-1392499Y-133700D01*
X-952500Y-133700D01*
D16*
X-4049090Y-1543913D02*
G01*
X-3049092Y-1543913D01*
X-3049092Y-2443911D01*
X-4049090Y-2443911D01*
X-4049090Y-1543913D01*
X-2766390Y-1569313D02*
G01*
X-1766392Y-1569313D01*
X-1766392Y-2469311D01*
X-2766390Y-2469311D01*
X-2766390Y-1569313D01*
X-1509090Y5834786D02*
G01*
X-509092Y5834786D01*
X-509092Y4934788D01*
X-1509090Y4934788D01*
X-1509090Y5834786D01*
X-1534490Y-3360013D02*
G01*
X-534492Y-3360013D01*
X-534492Y-4260011D01*
X-1534490Y-4260011D01*
X-1534490Y-3360013D01*
D17*
X-2336800Y4762500D02*
G01*
X-2400300Y4826000D01*
X-2336800Y4889500D01*
X-2336800Y5016500D01*
X-2400300Y5080000D01*
X-2336800Y5143500D01*
X-2336800Y5270500D01*
X-2400300Y5334000D01*
X-2336800Y5397500D01*
X-2336800Y5524500D01*
X-2400300Y5588000D01*
X-2527300Y5588000D01*
X-2590800Y5524500D01*
X-2590800Y5397500D01*
X-2527300Y5334000D01*
X-2590800Y5270500D01*
X-2590800Y5143500D01*
X-2527300Y5080000D01*
X-2590800Y5016500D01*
X-2590800Y4889500D01*
X-2527300Y4826000D01*
X-2590800Y4762500D01*
X-2590800Y4635500D01*
X-2527300Y4572000D01*
X-2590800Y4508500D01*
X-2590800Y4381500D01*
X-2527300Y4318000D01*
X-2590800Y4254500D01*
X-2590800Y4127500D01*
X-2527300Y4064000D01*
X-2590800Y4000500D01*
X-2590800Y3873500D01*
X-2527300Y3810000D01*
X-2590800Y3746500D01*
X-2590800Y3619500D01*
X-2527300Y3556000D01*
X-2590800Y3492500D01*
X-2590800Y3365500D01*
X-2527300Y3302000D01*
X-2590800Y3238500D01*
X-2590800Y3111500D01*
X-2527300Y3048000D01*
X-2590800Y2984500D01*
X-2590800Y2857500D01*
X-2527300Y2794000D01*
X-2590800Y2730500D01*
X-2590800Y2603500D01*
X-2527300Y2540000D01*
X-2590800Y2476500D01*
X-2590800Y2349500D01*
X-2527300Y2286000D01*
X-2590800Y2222500D01*
X-2590800Y2095500D01*
X-2527300Y2032000D01*
X-2590800Y1968500D01*
X-2590800Y1841500D01*
X-2527300Y1778000D01*
X-2400300Y1778000D01*
X-2336800Y1841500D01*
X-2336800Y1968500D02*
G01*
X-2400300Y2032000D01*
X-2336800Y2095500D01*
X-2336800Y1524000D01*
X-2908300Y1524000D01*
X-3543300Y1524000D01*
X-4114800Y1524000D01*
X-4114800Y1968500D01*
X-4114800Y2095500D01*
X-4051300Y2032000D01*
X-4114800Y1968500D01*
X-2336800Y2222500D02*
G01*
X-2400300Y2286000D01*
X-2336800Y2349500D01*
X-2336800Y2095500D02*
G01*
X-2336800Y2476500D01*
X-2400300Y2540000D01*
X-2336800Y2603500D01*
X-2336800Y2730500D02*
G01*
X-2400300Y2794000D01*
X-2336800Y2857500D01*
X-2336800Y2984500D02*
G01*
X-2400300Y3048000D01*
X-2336800Y3111500D01*
X-2336800Y3238500D02*
G01*
X-2400300Y3302000D01*
X-2336800Y3365500D01*
X-2336800Y3492500D02*
G01*
X-2400300Y3556000D01*
X-2336800Y3619500D01*
X-2336800Y3746500D02*
G01*
X-2400300Y3810000D01*
X-2336800Y3873500D01*
X-2336800Y4000500D02*
G01*
X-2400300Y4064000D01*
X-2336800Y4127500D01*
X-2336800Y4889500D01*
X-2336800Y4254500D02*
G01*
X-2400300Y4318000D01*
X-2336800Y4381500D01*
X-2336800Y4508500D02*
G01*
X-2400300Y4572000D01*
X-2336800Y4635500D01*
X-4114800Y1841500D02*
G01*
X-4051300Y1778000D01*
X-3924300Y1778000D01*
X-3860800Y1841500D01*
X-3860800Y1968500D01*
X-3924300Y2032000D01*
X-3860800Y2095500D01*
X-3860800Y2222500D01*
X-3924300Y2286000D01*
X-3860800Y2349500D01*
X-3860800Y2476500D01*
X-3924300Y2540000D01*
X-3860800Y2603500D01*
X-3860800Y2730500D01*
X-3924300Y2794000D01*
X-3860800Y2857500D01*
X-3860800Y2984500D01*
X-3924300Y3048000D01*
X-3860800Y3111500D01*
X-3860800Y3238500D01*
X-3924300Y3302000D01*
X-3860800Y3365500D01*
X-3860800Y3492500D01*
X-3924300Y3556000D01*
X-3860800Y3619500D01*
X-3860800Y3746500D01*
X-3924300Y3810000D01*
X-3860800Y3873500D01*
X-3860800Y4000500D01*
X-3924300Y4064000D01*
X-3860800Y4127500D01*
X-3860800Y4254500D01*
X-3924300Y4318000D01*
X-3860800Y4381500D01*
X-3860800Y4508500D01*
X-3924300Y4572000D01*
X-3860800Y4635500D01*
X-3860800Y4762500D01*
X-3924300Y4826000D01*
X-3860800Y4889500D01*
X-3860800Y5016500D01*
X-3924300Y5080000D01*
X-3860800Y5143500D01*
X-3860800Y5270500D01*
X-3924300Y5334000D01*
X-3860800Y5397500D01*
X-3860800Y5524500D01*
X-3924300Y5588000D01*
X-4051300Y5588000D01*
X-4114800Y5524500D01*
X-4114800Y5842000D01*
X-3543300Y5842000D01*
X-3543300Y5080000D01*
X-2908300Y5080000D01*
X-2908300Y5842000D01*
X-2908300Y5969000D01*
X-3543300Y5969000D01*
X-3543300Y5842000D01*
X-4114800Y4762500D02*
G01*
X-4051300Y4826000D01*
X-4114800Y4889500D01*
X-4114800Y5016500D01*
X-4051300Y5080000D01*
X-4114800Y5143500D01*
X-4114800Y5270500D01*
X-4051300Y5334000D01*
X-4114800Y5397500D01*
X-4114800Y5524500D01*
X-2336800Y2476500D02*
G01*
X-2336800Y4127500D01*
X-4114800Y4508500D02*
G01*
X-4051300Y4572000D01*
X-4114800Y4635500D01*
X-4114800Y4508500D01*
X-4114800Y4381500D01*
X-4114800Y4254500D01*
X-4114800Y4127500D01*
X-4114800Y4000500D01*
X-4114800Y3873500D01*
X-4114800Y3746500D01*
X-4114800Y3619500D01*
X-4114800Y3492500D01*
X-4114800Y3365500D01*
X-4114800Y3238500D01*
X-4114800Y3111500D01*
X-4114800Y2984500D01*
X-4114800Y2857500D01*
X-4114800Y2730500D01*
X-4114800Y2603500D01*
X-4114800Y2476500D01*
X-4114800Y2349500D01*
X-4114800Y2222500D01*
X-4114800Y2095500D01*
X-4114800Y4381500D02*
G01*
X-4051300Y4318000D01*
X-4114800Y4254500D01*
X-4114800Y4127500D02*
G01*
X-4051300Y4064000D01*
X-4114800Y4000500D01*
X-4114800Y3873500D02*
G01*
X-4051300Y3810000D01*
X-4114800Y3746500D01*
X-4114800Y3619500D02*
G01*
X-4051300Y3556000D01*
X-4114800Y3492500D01*
X-4114800Y3365500D02*
G01*
X-4051300Y3302000D01*
X-4114800Y3238500D01*
X-4114800Y3111500D02*
G01*
X-4051300Y3048000D01*
X-4114800Y2984500D01*
X-4114800Y2857500D02*
G01*
X-4051300Y2794000D01*
X-4114800Y2730500D01*
X-4114800Y2603500D02*
G01*
X-4051300Y2540000D01*
X-4114800Y2476500D01*
X-4114800Y2349500D02*
G01*
X-4051300Y2286000D01*
X-4114800Y2222500D01*
X-2336800Y5016500D02*
G01*
X-2336800Y5143500D01*
X-2336800Y5270500D02*
G01*
X-2336800Y5397500D01*
X-2336800Y5524500D02*
G01*
X-2336800Y5842000D01*
X-2908300Y5842000D01*
X-4114800Y5397500D02*
G01*
X-4114800Y5270500D01*
X-4114800Y5143500D02*
G01*
X-4114800Y5016500D01*
X-4114800Y4889500D02*
G01*
X-4114800Y4635500D01*
X-3479800Y3556000D02*
G01*
X-3479800Y3302000D01*
X-3098800Y3302000D01*
X-3098800Y3556000D01*
X-3479800Y3556000D01*
D11*
X-1875078Y3959839D02*
G01*
X-1779191Y3959839D01*
X-1779191Y4091960D01*
X-1875078Y4091960D01*
X-1960321Y3959839D02*
G01*
X-2056208Y3959839D01*
X-2056208Y4091960D01*
X-1960321Y4091960D01*
X-1973021Y2263160D02*
G01*
X-2068908Y2263160D01*
X-2068908Y2131039D01*
X-1973021Y2131039D01*
X-1887778Y2263160D02*
G01*
X-1791891Y2263160D01*
X-1791891Y2131039D01*
X-1887778Y2131039D01*
X-2023821Y154960D02*
G01*
X-2119708Y154960D01*
X-2119708Y22839D01*
X-2023821Y22839D01*
X-1938578Y154960D02*
G01*
X-1842691Y154960D01*
X-1842691Y22839D01*
X-1938578Y22839D01*
X-3921739Y-2675178D02*
G01*
X-3921739Y-2579291D01*
X-4053860Y-2579291D01*
X-4053860Y-2675178D01*
X-3921739Y-2760421D02*
G01*
X-3921739Y-2856308D01*
X-4053860Y-2856308D01*
X-4053860Y-2760421D01*
X-3157778Y-2821960D02*
G01*
X-3061891Y-2821960D01*
X-3061891Y-2689839D01*
X-3157778Y-2689839D01*
X-3243021Y-2821960D02*
G01*
X-3338908Y-2821960D01*
X-3338908Y-2689839D01*
X-3243021Y-2689839D01*
X-2639039Y-2662478D02*
G01*
X-2639039Y-2566591D01*
X-2771160Y-2566591D01*
X-2771160Y-2662478D01*
X-2639039Y-2747721D02*
G01*
X-2639039Y-2843608D01*
X-2771160Y-2843608D01*
X-2771160Y-2747721D01*
X-1887778Y-2834660D02*
G01*
X-1791891Y-2834660D01*
X-1791891Y-2702539D01*
X-1887778Y-2702539D01*
X-1973021Y-2834660D02*
G01*
X-2068908Y-2834660D01*
X-2068908Y-2702539D01*
X-1973021Y-2702539D01*
X-1998421Y4955560D02*
G01*
X-2094308Y4955560D01*
X-2094308Y4823439D01*
X-1998421Y4823439D01*
X-1913178Y4955560D02*
G01*
X-1817291Y4955560D01*
X-1817291Y4823439D01*
X-1913178Y4823439D01*
X-1973021Y5349260D02*
G01*
X-2068908Y5349260D01*
X-2068908Y5217139D01*
X-1973021Y5217139D01*
X-1887778Y5349260D02*
G01*
X-1791891Y5349260D01*
X-1791891Y5217139D01*
X-1887778Y5217139D01*
X-3183178Y4531339D02*
G01*
X-3087291Y4531339D01*
X-3087291Y4663460D01*
X-3183178Y4663460D01*
X-3268421Y4531339D02*
G01*
X-3364308Y4531339D01*
X-3364308Y4663460D01*
X-3268421Y4663460D01*
X-3208578Y1673839D02*
G01*
X-3112691Y1673839D01*
X-3112691Y1805960D01*
X-3208578Y1805960D01*
X-3293821Y1673839D02*
G01*
X-3389708Y1673839D01*
X-3389708Y1805960D01*
X-3293821Y1805960D01*
X-3344621Y3990360D02*
G01*
X-3440508Y3990360D01*
X-3440508Y3858239D01*
X-3344621Y3858239D01*
X-3259378Y3990360D02*
G01*
X-3163491Y3990360D01*
X-3163491Y3858239D01*
X-3259378Y3858239D01*
X-3190880Y4835890D02*
G01*
X-3062386Y4835890D01*
X-3062386Y5019309D01*
X-3190880Y5019309D01*
X-3286119Y4835890D02*
G01*
X-3414613Y4835890D01*
X-3414613Y5019309D01*
X-3286119Y5019309D01*
D15*
X-3513899Y2390000D02*
G01*
X-3513899Y2467343D01*
X-3513899Y2689999D02*
G01*
X-3513899Y2612628D01*
X-3513899Y2689999D02*
G01*
X-3513899Y2730500D01*
X-3504758Y2730500D01*
X-3013900Y2390000D02*
G01*
X-3013900Y2349500D01*
X-3023041Y2349500D01*
X-3513899Y2390000D02*
G01*
X-3513899Y2349500D01*
X-3504758Y2349500D01*
X-3013900Y2689999D02*
G01*
X-3013900Y2730500D01*
X-3023041Y2730500D01*
X-3013900Y2689999D02*
G01*
X-3013900Y2390000D01*
G75*
G01*
X-1789849Y5636339D02*
G02*
X-1820832Y5605356I-30983J0D01*
G75*
G01*
X-1820832Y5747322D02*
G02*
X-1789849Y5716336I0J-30983D01*
G75*
G01*
X-2038419Y5605937D02*
G02*
X-2069401Y5636923I0J30983D01*
G75*
G01*
X-2069401Y5716920D02*
G02*
X-2038419Y5747903I30982J0D01*
G75*
G01*
X-1840649Y378539D02*
G02*
X-1871632Y347556I-30983J0D01*
G75*
G01*
X-1871632Y489522D02*
G02*
X-1840649Y458536I0J-30983D01*
G75*
G01*
X-2089219Y348137D02*
G02*
X-2120201Y379123I0J30983D01*
G75*
G01*
X-2120201Y459120D02*
G02*
X-2089219Y490103I30982J0D01*
G75*
G01*
X-1789849Y1737439D02*
G02*
X-1820832Y1706456I-30983J0D01*
G75*
G01*
X-1820832Y1848422D02*
G02*
X-1789849Y1817436I0J-30983D01*
G75*
G01*
X-2038419Y1707037D02*
G02*
X-2069401Y1738023I0J30983D01*
G75*
G01*
X-2069401Y1818020D02*
G02*
X-2038419Y1849003I30982J0D01*
G75*
G01*
X-2058251Y3558461D02*
G02*
X-2027268Y3589444I30983J0D01*
G75*
G01*
X-2027268Y3447478D02*
G02*
X-2058251Y3478464I0J30983D01*
G75*
G01*
X-1809681Y3588863D02*
G02*
X-1778699Y3557877I0J-30983D01*
G75*
G01*
X-1778699Y3477880D02*
G02*
X-1809681Y3446897I-30982J0D01*
G75*
G01*
X-3455251Y4244261D02*
G02*
X-3424268Y4275244I30983J0D01*
G75*
G01*
X-3424268Y4133278D02*
G02*
X-3455251Y4164264I0J30983D01*
G75*
G01*
X-3206681Y4274663D02*
G02*
X-3175699Y4243677I0J-30983D01*
G75*
G01*
X-3175699Y4163680D02*
G02*
X-3206681Y4132697I-30982J0D01*
G75*
G01*
X-2880439Y4229951D02*
G02*
X-2849456Y4198968I0J-30983D01*
G75*
G01*
X-2991422Y4198968D02*
G02*
X-2960436Y4229951I30983J0D01*
G75*
G01*
X-2850037Y3981381D02*
G02*
X-2881023Y3950399I-30983J0D01*
G75*
G01*
X-2961020Y3950399D02*
G02*
X-2992003Y3981381I0J30982D01*
G75*
G01*
X-813651Y-2664539D02*
G02*
X-782668Y-2633556I30983J0D01*
G75*
G01*
X-782668Y-2775522D02*
G02*
X-813651Y-2744536I0J30983D01*
G75*
G01*
X-565081Y-2634137D02*
G02*
X-534099Y-2665123I0J-30983D01*
G75*
G01*
X-534099Y-2745120D02*
G02*
X-565081Y-2776103I-30982J0D01*
G75*
G01*
X-3540839Y-2577249D02*
G02*
X-3509856Y-2608232I0J-30983D01*
G75*
G01*
X-3651822Y-2608232D02*
G02*
X-3620836Y-2577249I30983J0D01*
G75*
G01*
X-3510437Y-2825819D02*
G02*
X-3541423Y-2856801I-30983J0D01*
G75*
G01*
X-3621420Y-2856801D02*
G02*
X-3652403Y-2825819I0J30982D01*
G75*
G01*
X-2283539Y-2564549D02*
G02*
X-2252556Y-2595532I0J-30983D01*
G75*
G01*
X-2394522Y-2595532D02*
G02*
X-2363536Y-2564549I30983J0D01*
G75*
G01*
X-2253137Y-2813119D02*
G02*
X-2284123Y-2844101I-30983J0D01*
G75*
G01*
X-2364120Y-2844101D02*
G02*
X-2395103Y-2813119I0J30982D01*
D17*
G75*
G01*
X-3289300Y3352800D02*
G03*
X-3289706Y3352800I-203J76200D01*
D15*
G75*
G01*
X-3513900Y2467343D02*
G03*
X-3513409Y2612629I-3980J72657D01*
G75*
G01
X-1232662Y3496894D02*
G03X-1232662Y3496894I-59842J0D01*
G75*
G01
X-552653Y3496894D02*
G03X-552653Y3496894I-59842J0D01*
G75*
G01
X-552653Y4176903D02*
G03X-552653Y4176903I-59842J0D01*
G75*
G01
X-1232662Y4176903D02*
G03X-1232662Y4176903I-59842J0D01*
G75*
G01
X-1232662Y1744294D02*
G03X-1232662Y1744294I-59842J0D01*
G75*
G01
X-552653Y1744294D02*
G03X-552653Y1744294I-59842J0D01*
G75*
G01
X-552653Y2424303D02*
G03X-552653Y2424303I-59842J0D01*
G75*
G01
X-1232662Y2424303D02*
G03X-1232662Y2424303I-59842J0D01*
G75*
G01
X-1232662Y-33706D02*
G03X-1232662Y-33706I-59842J0D01*
G75*
G01
X-552653Y-33706D02*
G03X-552653Y-33706I-59842J0D01*
G75*
G01
X-552653Y646303D02*
G03X-552653Y646303I-59842J0D01*
G75*
G01
X-1232662Y646303D02*
G03X-1232662Y646303I-59842J0D01*
D16*
G75*
G01
X-3414090Y-1993900D02*
G03X-3414090Y-1993900I-180010J0D01*
G75*
G01
X-3301594Y-1993900D02*
G03X-3301594Y-1993900I-292506J0D01*
G75*
G01
X-2131390Y-2019300D02*
G03X-2131390Y-2019300I-180010J0D01*
G75*
G01
X-2018894Y-2019300D02*
G03X-2018894Y-2019300I-292506J0D01*
G75*
G01
X-874090Y5384800D02*
G03X-874090Y5384800I-180010J0D01*
G75*
G01
X-761594Y5384800D02*
G03X-761594Y5384800I-292506J0D01*
G75*
G01
X-899490Y-3810000D02*
G03X-899490Y-3810000I-180010J0D01*
G75*
G01
X-786994Y-3810000D02*
G03X-786994Y-3810000I-292506J0D01*
D18*
G75*
G01
X-3502889Y2273300D02*
G03X-3502889Y2273300I-15011J0D01*
M02*
