G04 Layer: BottomLayer*
G04 EasyEDA v6.5.22, 2023-02-14 12:38:32*
G04 3ec02a8cd32b49f9a07c26a40bf890e6,7be1179030e74d40a97a3c751b95adb4,10*
G04 Gerber Generator version 0.2*
G04 Scale: 100 percent, Rotated: No, Reflected: No *
G04 Dimensions in millimeters *
G04 leading zeros omitted , absolute positions ,4 integer and 5 decimal *
%FSLAX45Y45*%
%MOMM*%

%AMMACRO1*21,1,$1,$2,0,0,$3*%
%ADD10C,0.2540*%
%ADD11C,1.6637*%
%ADD12MACRO1,1.6637X1.6637X0.0000*%
%ADD13C,1.5240*%
%ADD14O,1.499997X3.1999936*%
%ADD15O,0.7999984X2.7999944*%
%ADD16R,1.5080X1.5080*%
%ADD17C,1.5080*%
%ADD18C,0.6096*%

%LPD*%
D10*
X-3987800Y2920997D02*
G01*
X-4097731Y3030928D01*
X-4097731Y3989905D01*
X-4023639Y4063997D01*
X-2238222Y4063997D01*
X-2031136Y4271083D01*
X-1874545Y3831409D02*
G01*
X-2997123Y3831409D01*
X-3102914Y3937200D01*
X-1874545Y3831409D02*
G01*
X-1874545Y3808956D01*
X-1202486Y3136897D01*
X-1579092Y5384797D02*
G01*
X-1633423Y5384797D01*
X-1874545Y5143675D01*
X-1874545Y3831409D01*
X-3073400Y1795980D02*
G01*
X-1771904Y1795980D01*
X-3987800Y2158997D02*
G01*
X-3624783Y1795980D01*
X-3073400Y1795980D01*
X-1979168Y-393702D02*
G01*
X-3708400Y-393702D01*
X-3721100Y-406402D01*
X-1202486Y-393702D02*
G01*
X-1979168Y-393702D01*
X-2836392Y-2668551D02*
G01*
X-2836392Y-2019302D01*
X-1604492Y-3810002D02*
G01*
X-2745943Y-2668551D01*
X-2836392Y-2668551D01*
X-2836392Y-2668551D02*
G01*
X-3487673Y-2668551D01*
X-1614170Y1795980D02*
G01*
X-1202486Y1384297D01*
X-1771904Y1795980D02*
G01*
X-1614170Y1795980D01*
X-1202486Y3136897D02*
G01*
X-1614170Y2725214D01*
X-1614170Y1795980D01*
X-2836392Y-2019302D02*
G01*
X-3488181Y-1367513D01*
X-3863543Y-1367513D01*
X-3863543Y-1367513D02*
G01*
X-4119092Y-1623062D01*
X-4119092Y-1993902D01*
X-3863543Y-660402D02*
G01*
X-3863543Y-1367513D01*
X-3863543Y-660402D02*
G01*
X-3721100Y-660402D01*
X-3975100Y-660402D02*
G01*
X-3863543Y-660402D01*
X-3987800Y3936997D02*
G01*
X-2671902Y2621099D01*
X-2671902Y2459657D01*
X-2498242Y2285997D01*
X-2443835Y2285997D01*
X-2145436Y1987598D01*
X-3987800Y4444997D02*
G01*
X-4138523Y4294273D01*
X-4138523Y2906900D01*
X-4025620Y2793997D01*
X-3254959Y2793997D01*
X-2478557Y2017595D01*
X-2258263Y2017595D01*
X-2168956Y1928289D01*
X-2000402Y1928289D01*
X-2178761Y4246572D02*
G01*
X-2232304Y4300115D01*
X-3588918Y4300115D01*
X-3987800Y4698997D01*
X-811072Y1080335D02*
G01*
X-2527757Y1080335D01*
X-3107029Y1659608D01*
X-3721100Y355597D02*
G01*
X-3245434Y-120068D01*
X-976121Y-120068D01*
X-702487Y-393702D01*
X-3975100Y355597D02*
G01*
X-3721100Y355597D01*
X-3975100Y355597D02*
G01*
X-4100677Y481175D01*
X-4100677Y2554119D01*
X-3987800Y2666997D01*
X-599109Y5384797D02*
G01*
X-882167Y5101739D01*
X-1812188Y5101739D01*
X-2463800Y4698997D02*
G01*
X-3292525Y4698997D01*
X-3301136Y4690386D01*
G36*
X-1536700Y4064000D02*
G01*
X-1200150Y4064000D01*
X-1200150Y3613150D01*
X-1536700Y3613150D01*
G37*
G36*
X-685800Y4064000D02*
G01*
X-349250Y4064000D01*
X-349250Y3613150D01*
X-685800Y3613150D01*
G37*
G36*
X-1536700Y2311400D02*
G01*
X-1200150Y2311400D01*
X-1200150Y1860550D01*
X-1536700Y1860550D01*
G37*
G36*
X-698500Y2298700D02*
G01*
X-361950Y2298700D01*
X-361950Y1847850D01*
X-698500Y1847850D01*
G37*
G36*
X-1549400Y533400D02*
G01*
X-1212850Y533400D01*
X-1212850Y82550D01*
X-1549400Y82550D01*
G37*
G36*
X-698500Y546100D02*
G01*
X-361950Y546100D01*
X-361950Y95250D01*
X-698500Y95250D01*
G37*
D11*
G01*
X-3721100Y609600D03*
G01*
X-3975100Y609600D03*
G01*
X-3721100Y101600D03*
G01*
X-3975100Y101600D03*
G01*
X-3721100Y-152400D03*
G01*
X-3975100Y-152400D03*
G01*
X-3721100Y-406400D03*
G01*
X-3975100Y-406400D03*
G01*
X-3721100Y-660400D03*
G01*
X-3975100Y-660400D03*
G01*
X-3721100Y863600D03*
G01*
X-3975100Y863600D03*
G01*
X-3721100Y355600D03*
G01*
X-3975100Y355600D03*
G01*
X-3721100Y-914400D03*
D12*
G01*
X-3975100Y-914400D03*
D13*
G01*
X-1202486Y3136900D03*
G01*
X-952500Y3136900D03*
G01*
X-702487Y3136900D03*
D14*
G01*
X-522300Y3836746D03*
G01*
X-1382496Y3836898D03*
D13*
G01*
X-1202486Y1384300D03*
G01*
X-952500Y1384300D03*
G01*
X-702487Y1384300D03*
D14*
G01*
X-522300Y2084146D03*
G01*
X-1382496Y2084298D03*
D13*
G01*
X-1202486Y-393700D03*
G01*
X-952500Y-393700D03*
G01*
X-702487Y-393700D03*
D14*
G01*
X-522300Y306146D03*
G01*
X-1382496Y306298D03*
D15*
G01*
X-3971112Y-1993900D03*
G01*
X-3139109Y-1993900D03*
G01*
X-4119092Y-1993900D03*
G01*
X-2688412Y-2019300D03*
G01*
X-1856409Y-2019300D03*
G01*
X-2836392Y-2019300D03*
G01*
X-1431112Y5384800D03*
G01*
X-599109Y5384800D03*
G01*
X-1579092Y5384800D03*
G01*
X-1456512Y-3810000D03*
G01*
X-624509Y-3810000D03*
G01*
X-1604492Y-3810000D03*
D16*
G01*
X-2463800Y1905000D03*
D17*
G01*
X-2463800Y2159000D03*
G01*
X-2463800Y2413000D03*
G01*
X-2463800Y2667000D03*
G01*
X-2463800Y2921000D03*
G01*
X-2463800Y3175000D03*
G01*
X-2463800Y3429000D03*
G01*
X-2463800Y3683000D03*
G01*
X-2463800Y3937000D03*
G01*
X-2463800Y4191000D03*
G01*
X-2463800Y4445000D03*
G01*
X-2463800Y4699000D03*
G01*
X-3987800Y1905000D03*
G01*
X-3987800Y2159000D03*
G01*
X-3987800Y2413000D03*
G01*
X-3987800Y2667000D03*
G01*
X-3987800Y2921000D03*
G01*
X-3987800Y3175000D03*
G01*
X-3987800Y3683000D03*
G01*
X-3987800Y3937000D03*
G01*
X-3987800Y4445000D03*
G01*
X-3987800Y4699000D03*
G01*
X-3987800Y4191000D03*
G01*
X-3987800Y3429000D03*
G01*
X-2463800Y4953000D03*
G01*
X-2463800Y5207000D03*
G01*
X-2463800Y5461000D03*
G01*
X-3987800Y4953000D03*
G01*
X-3987800Y5207000D03*
G01*
X-3987800Y5461000D03*
D18*
G01*
X-2031136Y4271086D03*
G01*
X-3102914Y3937203D03*
G01*
X-3073400Y1795983D03*
G01*
X-1979168Y-393700D03*
G01*
X-3487673Y-2668549D03*
G01*
X-1771904Y1795983D03*
G01*
X-2145436Y1987600D03*
G01*
X-2000402Y1928291D03*
G01*
X-2178761Y4246575D03*
G01*
X-811072Y1080338D03*
G01*
X-3107029Y1659610D03*
G01*
X-1812188Y5101742D03*
G01*
X-3301136Y4690389D03*
M02*
