G04 Layer: TopPasteMaskLayer*
G04 EasyEDA v6.5.22, 2023-02-14 12:38:32*
G04 3ec02a8cd32b49f9a07c26a40bf890e6,7be1179030e74d40a97a3c751b95adb4,10*
G04 Gerber Generator version 0.2*
G04 Scale: 100 percent, Rotated: No, Reflected: No *
G04 Dimensions in millimeters *
G04 leading zeros omitted , absolute positions ,4 integer and 5 decimal *
%FSLAX45Y45*%
%MOMM*%

%ADD10R,0.8000X0.9000*%
%ADD11R,0.9000X0.8000*%
%ADD12O,0.5684012X1.950212*%

%LPD*%
G36*
X-1878177Y4070908D02*
G01*
X-1883206Y4065879D01*
X-1883206Y4043121D01*
X-1846173Y4043121D01*
X-1846173Y4010101D01*
X-1883206Y4010101D01*
X-1883206Y3985920D01*
X-1878177Y3980891D01*
X-1798218Y3980891D01*
X-1793189Y3985920D01*
X-1793189Y4065879D01*
X-1798218Y4070908D01*
G37*
G36*
X-2037181Y4070908D02*
G01*
X-2042210Y4065879D01*
X-2042210Y3985920D01*
X-2037181Y3980891D01*
X-1958187Y3980891D01*
X-1953209Y3985920D01*
X-1953209Y4010101D01*
X-1991207Y4010101D01*
X-1991207Y4043121D01*
X-1953209Y4043121D01*
X-1953209Y4065879D01*
X-1958187Y4070908D01*
G37*
G36*
X-2049881Y2242108D02*
G01*
X-2054910Y2237079D01*
X-2054910Y2157120D01*
X-2049881Y2152091D01*
X-1969922Y2152091D01*
X-1964893Y2157120D01*
X-1964893Y2179878D01*
X-2001926Y2179878D01*
X-2001926Y2212898D01*
X-1964893Y2212898D01*
X-1964893Y2237079D01*
X-1969922Y2242108D01*
G37*
G36*
X-1889912Y2242108D02*
G01*
X-1894890Y2237079D01*
X-1894890Y2212898D01*
X-1856892Y2212898D01*
X-1856892Y2179878D01*
X-1894890Y2179878D01*
X-1894890Y2157120D01*
X-1889912Y2152091D01*
X-1810918Y2152091D01*
X-1805889Y2157120D01*
X-1805889Y2237079D01*
X-1810918Y2242108D01*
G37*
G36*
X-2100681Y133908D02*
G01*
X-2105710Y128879D01*
X-2105710Y48920D01*
X-2100681Y43891D01*
X-2020722Y43891D01*
X-2015693Y48920D01*
X-2015693Y71678D01*
X-2052726Y71678D01*
X-2052726Y104698D01*
X-2015693Y104698D01*
X-2015693Y128879D01*
X-2020722Y133908D01*
G37*
G36*
X-1940712Y133908D02*
G01*
X-1945690Y128879D01*
X-1945690Y104698D01*
X-1907692Y104698D01*
X-1907692Y71678D01*
X-1945690Y71678D01*
X-1945690Y48920D01*
X-1940712Y43891D01*
X-1861718Y43891D01*
X-1856689Y48920D01*
X-1856689Y128879D01*
X-1861718Y133908D01*
G37*
G36*
X-4027779Y-2593289D02*
G01*
X-4032808Y-2598318D01*
X-4032808Y-2678277D01*
X-4027779Y-2683306D01*
X-4005021Y-2683306D01*
X-4005021Y-2646273D01*
X-3972001Y-2646273D01*
X-3972001Y-2683306D01*
X-3947820Y-2683306D01*
X-3942791Y-2678277D01*
X-3942791Y-2598318D01*
X-3947820Y-2593289D01*
G37*
G36*
X-4027779Y-2753309D02*
G01*
X-4032808Y-2758287D01*
X-4032808Y-2837281D01*
X-4027779Y-2842310D01*
X-3947820Y-2842310D01*
X-3942791Y-2837281D01*
X-3942791Y-2758287D01*
X-3947820Y-2753309D01*
X-3972001Y-2753309D01*
X-3972001Y-2791307D01*
X-4005021Y-2791307D01*
X-4005021Y-2753309D01*
G37*
G36*
X-3160877Y-2710891D02*
G01*
X-3165906Y-2715920D01*
X-3165906Y-2738678D01*
X-3128873Y-2738678D01*
X-3128873Y-2771698D01*
X-3165906Y-2771698D01*
X-3165906Y-2795879D01*
X-3160877Y-2800908D01*
X-3080918Y-2800908D01*
X-3075889Y-2795879D01*
X-3075889Y-2715920D01*
X-3080918Y-2710891D01*
G37*
G36*
X-3319881Y-2710891D02*
G01*
X-3324910Y-2715920D01*
X-3324910Y-2795879D01*
X-3319881Y-2800908D01*
X-3240887Y-2800908D01*
X-3235909Y-2795879D01*
X-3235909Y-2771698D01*
X-3273907Y-2771698D01*
X-3273907Y-2738678D01*
X-3235909Y-2738678D01*
X-3235909Y-2715920D01*
X-3240887Y-2710891D01*
G37*
G36*
X-2745079Y-2580589D02*
G01*
X-2750108Y-2585618D01*
X-2750108Y-2665577D01*
X-2745079Y-2670606D01*
X-2722321Y-2670606D01*
X-2722321Y-2633573D01*
X-2689301Y-2633573D01*
X-2689301Y-2670606D01*
X-2665120Y-2670606D01*
X-2660091Y-2665577D01*
X-2660091Y-2585618D01*
X-2665120Y-2580589D01*
G37*
G36*
X-2745079Y-2740609D02*
G01*
X-2750108Y-2745587D01*
X-2750108Y-2824581D01*
X-2745079Y-2829610D01*
X-2665120Y-2829610D01*
X-2660091Y-2824581D01*
X-2660091Y-2745587D01*
X-2665120Y-2740609D01*
X-2689301Y-2740609D01*
X-2689301Y-2778607D01*
X-2722321Y-2778607D01*
X-2722321Y-2740609D01*
G37*
G36*
X-1890877Y-2723591D02*
G01*
X-1895906Y-2728620D01*
X-1895906Y-2751378D01*
X-1858873Y-2751378D01*
X-1858873Y-2784398D01*
X-1895906Y-2784398D01*
X-1895906Y-2808579D01*
X-1890877Y-2813608D01*
X-1810918Y-2813608D01*
X-1805889Y-2808579D01*
X-1805889Y-2728620D01*
X-1810918Y-2723591D01*
G37*
G36*
X-2049881Y-2723591D02*
G01*
X-2054910Y-2728620D01*
X-2054910Y-2808579D01*
X-2049881Y-2813608D01*
X-1970887Y-2813608D01*
X-1965909Y-2808579D01*
X-1965909Y-2784398D01*
X-2003907Y-2784398D01*
X-2003907Y-2751378D01*
X-1965909Y-2751378D01*
X-1965909Y-2728620D01*
X-1970887Y-2723591D01*
G37*
G36*
X-2075281Y4934508D02*
G01*
X-2080310Y4929479D01*
X-2080310Y4849520D01*
X-2075281Y4844491D01*
X-1995322Y4844491D01*
X-1990293Y4849520D01*
X-1990293Y4872278D01*
X-2027326Y4872278D01*
X-2027326Y4905298D01*
X-1990293Y4905298D01*
X-1990293Y4929479D01*
X-1995322Y4934508D01*
G37*
G36*
X-1915312Y4934508D02*
G01*
X-1920290Y4929479D01*
X-1920290Y4905298D01*
X-1882292Y4905298D01*
X-1882292Y4872278D01*
X-1920290Y4872278D01*
X-1920290Y4849520D01*
X-1915312Y4844491D01*
X-1836318Y4844491D01*
X-1831289Y4849520D01*
X-1831289Y4929479D01*
X-1836318Y4934508D01*
G37*
G36*
X-2049881Y5328208D02*
G01*
X-2054910Y5323179D01*
X-2054910Y5243220D01*
X-2049881Y5238191D01*
X-1969922Y5238191D01*
X-1964893Y5243220D01*
X-1964893Y5265978D01*
X-2001926Y5265978D01*
X-2001926Y5298998D01*
X-1964893Y5298998D01*
X-1964893Y5323179D01*
X-1969922Y5328208D01*
G37*
G36*
X-1889912Y5328208D02*
G01*
X-1894890Y5323179D01*
X-1894890Y5298998D01*
X-1856892Y5298998D01*
X-1856892Y5265978D01*
X-1894890Y5265978D01*
X-1894890Y5243220D01*
X-1889912Y5238191D01*
X-1810918Y5238191D01*
X-1805889Y5243220D01*
X-1805889Y5323179D01*
X-1810918Y5328208D01*
G37*
G36*
X-3186277Y4642408D02*
G01*
X-3191306Y4637379D01*
X-3191306Y4614621D01*
X-3154273Y4614621D01*
X-3154273Y4581601D01*
X-3191306Y4581601D01*
X-3191306Y4557420D01*
X-3186277Y4552391D01*
X-3106318Y4552391D01*
X-3101289Y4557420D01*
X-3101289Y4637379D01*
X-3106318Y4642408D01*
G37*
G36*
X-3345281Y4642408D02*
G01*
X-3350310Y4637379D01*
X-3350310Y4557420D01*
X-3345281Y4552391D01*
X-3266287Y4552391D01*
X-3261309Y4557420D01*
X-3261309Y4581601D01*
X-3299307Y4581601D01*
X-3299307Y4614621D01*
X-3261309Y4614621D01*
X-3261309Y4637379D01*
X-3266287Y4642408D01*
G37*
G36*
X-3211677Y1784908D02*
G01*
X-3216706Y1779879D01*
X-3216706Y1757121D01*
X-3179673Y1757121D01*
X-3179673Y1724101D01*
X-3216706Y1724101D01*
X-3216706Y1699920D01*
X-3211677Y1694891D01*
X-3131718Y1694891D01*
X-3126689Y1699920D01*
X-3126689Y1779879D01*
X-3131718Y1784908D01*
G37*
G36*
X-3370681Y1784908D02*
G01*
X-3375710Y1779879D01*
X-3375710Y1699920D01*
X-3370681Y1694891D01*
X-3291687Y1694891D01*
X-3286709Y1699920D01*
X-3286709Y1724101D01*
X-3324707Y1724101D01*
X-3324707Y1757121D01*
X-3286709Y1757121D01*
X-3286709Y1779879D01*
X-3291687Y1784908D01*
G37*
G36*
X-3421481Y3969308D02*
G01*
X-3426510Y3964279D01*
X-3426510Y3884320D01*
X-3421481Y3879291D01*
X-3341522Y3879291D01*
X-3336493Y3884320D01*
X-3336493Y3907078D01*
X-3373526Y3907078D01*
X-3373526Y3940098D01*
X-3336493Y3940098D01*
X-3336493Y3964279D01*
X-3341522Y3969308D01*
G37*
G36*
X-3261512Y3969308D02*
G01*
X-3266490Y3964279D01*
X-3266490Y3940098D01*
X-3228492Y3940098D01*
X-3228492Y3907078D01*
X-3266490Y3907078D01*
X-3266490Y3884320D01*
X-3261512Y3879291D01*
X-3182518Y3879291D01*
X-3177489Y3884320D01*
X-3177489Y3964279D01*
X-3182518Y3969308D01*
G37*
G36*
X-3403498Y4996586D02*
G01*
X-3408527Y4991608D01*
X-3408527Y4863592D01*
X-3403498Y4858613D01*
X-3288487Y4858613D01*
X-3283508Y4863592D01*
X-3284016Y4905603D01*
X-3328009Y4905603D01*
X-3328009Y4950612D01*
X-3283000Y4950612D01*
X-3283508Y4991608D01*
X-3288487Y4996586D01*
G37*
G36*
X-3188512Y4996586D02*
G01*
X-3193491Y4991608D01*
X-3192983Y4950612D01*
X-3148990Y4950612D01*
X-3148990Y4905603D01*
X-3193491Y4905603D01*
X-3193491Y4863592D01*
X-3188512Y4858613D01*
X-3073501Y4858613D01*
X-3068523Y4863592D01*
X-3068523Y4991608D01*
X-3073501Y4996586D01*
G37*
D10*
G01*
X-2000402Y5676900D03*
G01*
X-1860397Y5676900D03*
G01*
X-2051202Y419100D03*
G01*
X-1911197Y419100D03*
G01*
X-2000402Y1778000D03*
G01*
X-1860397Y1778000D03*
G01*
X-1847697Y3517900D03*
G01*
X-1987702Y3517900D03*
G01*
X-3244697Y4203700D03*
G01*
X-3384702Y4203700D03*
D11*
G01*
X-2921000Y4019397D03*
G01*
X-2921000Y4159402D03*
D10*
G01*
X-603097Y-2705100D03*
G01*
X-743102Y-2705100D03*
D11*
G01*
X-3581400Y-2787802D03*
G01*
X-3581400Y-2647797D03*
G01*
X-2324100Y-2775102D03*
G01*
X-2324100Y-2635097D03*
D12*
G01*
X-3454400Y2269489D03*
G01*
X-3327400Y2269489D03*
G01*
X-3200400Y2269489D03*
G01*
X-3073400Y2269489D03*
G01*
X-3454400Y2810510D03*
G01*
X-3327400Y2810510D03*
G01*
X-3200400Y2810510D03*
G01*
X-3073400Y2810510D03*
M02*
